<svg xmlns="http://www.w3.org/2000/svg" xmlns:xlink="http://www.w3.org/1999/xlink" width="259.92" height="305.13" viewBox="0 0 259.92 305.13"><defs><style>.cls-1{fill:url(#Безымянный_градиент_110);}.cls-2{opacity:0.38;fill:url(#Безымянный_градиент_161);}.cls-3{fill:url(#Безымянный_градиент_342);}.cls-4{fill:url(#Безымянный_градиент_236);}.cls-5{fill:#b75ae0;}.cls-6{fill:url(#Безымянный_градиент_133);}.cls-7{fill:url(#Безымянный_градиент_240);}.cls-8{fill:url(#Безымянный_градиент_236-2);}.cls-9{fill:url(#Безымянный_градиент_226);}.cls-10{fill:url(#Безымянный_градиент_344);}.cls-11{fill:url(#Безымянный_градиент_88);}.cls-12{fill:url(#Безымянный_градиент_88-2);}.cls-13{fill:url(#Безымянный_градиент_349);}.cls-14{fill:none;stroke-miterlimit:10;stroke-width:1.5px;stroke:url(#Безымянный_градиент_88-3);}</style><linearGradient id="Безымянный_градиент_110" x1="75.71" y1="123.97" x2="246" y2="123.97" gradientUnits="userSpaceOnUse"><stop offset="0.2" stop-color="#823ec3"/><stop offset="0.3" stop-color="#733fbc"/><stop offset="0.51" stop-color="#4b42ab"/><stop offset="0.54" stop-color="#4543a8"/><stop offset="0.57" stop-color="#423fa4"/><stop offset="0.79" stop-color="#31268a"/><stop offset="0.93" stop-color="#2b1c80"/></linearGradient><linearGradient id="Безымянный_градиент_161" x1="8.37" y1="246.35" x2="219.2" y2="246.35" gradientUnits="userSpaceOnUse"><stop offset="0.06" stop-color="#9b4ec3" stop-opacity="0"/><stop offset="1" stop-color="#6930be"/></linearGradient><linearGradient id="Безымянный_градиент_342" x1="74.45" y1="125.87" x2="241.13" y2="125.87" gradientUnits="userSpaceOnUse"><stop offset="0.03" stop-color="#aa5bd8"/><stop offset="0.48" stop-color="#813dd5"/><stop offset="1" stop-color="#5d55e4"/></linearGradient><linearGradient id="Безымянный_градиент_236" x1="62.38" y1="75.45" x2="229.06" y2="75.45" gradientUnits="userSpaceOnUse"><stop offset="0" stop-color="#4543a8"/><stop offset="0.07" stop-color="#423fa4"/><stop offset="0.61" stop-color="#31268a"/><stop offset="0.93" stop-color="#2b1c80"/></linearGradient><linearGradient id="Безымянный_градиент_133" y1="115.69" x2="85.71" y2="115.69" gradientUnits="userSpaceOnUse"><stop offset="0.03" stop-color="#c486c7"/><stop offset="0.34" stop-color="#b962db"/><stop offset="0.69" stop-color="#794cc3"/><stop offset="0.91" stop-color="#5724b3"/></linearGradient><linearGradient id="Безымянный_градиент_240" x1="3.52" y1="116.88" x2="85.88" y2="116.88" gradientUnits="userSpaceOnUse"><stop offset="0.22" stop-color="#7438b9"/><stop offset="0.54" stop-color="#5b2ea8"/><stop offset="0.76" stop-color="#482798"/><stop offset="1" stop-color="#37208a"/></linearGradient><linearGradient id="Безымянный_градиент_236-2" x1="5.75" y1="145.05" x2="85.23" y2="145.05" xlink:href="#Безымянный_градиент_236"/><linearGradient id="Безымянный_градиент_226" x1="4.79" y1="91" x2="84.27" y2="91" gradientUnits="userSpaceOnUse"><stop offset="0.2" stop-color="#823ec3"/><stop offset="0.41" stop-color="#7338b7"/><stop offset="0.81" stop-color="#4b2999"/><stop offset="1" stop-color="#372189"/></linearGradient><linearGradient id="Безымянный_градиент_344" x1="24.71" y1="218.63" x2="197.14" y2="218.63" gradientUnits="userSpaceOnUse"><stop offset="0.11" stop-color="#4543a8"/><stop offset="0.17" stop-color="#423fa4"/><stop offset="0.64" stop-color="#31268a"/><stop offset="0.93" stop-color="#2b1c80"/></linearGradient><linearGradient id="Безымянный_градиент_88" x1="25.45" y1="201.34" x2="197.14" y2="201.34" gradientUnits="userSpaceOnUse"><stop offset="0" stop-color="#8155cd"/><stop offset="0.54" stop-color="#b962db"/><stop offset="0.96" stop-color="#c061bc"/></linearGradient><linearGradient id="Безымянный_градиент_88-2" x1="181.8" y1="23.01" x2="256.06" y2="151.62" xlink:href="#Безымянный_градиент_88"/><linearGradient id="Безымянный_градиент_349" x1="245.48" y1="101.49" x2="142.82" y2="101.49" gradientTransform="translate(49.93 -63.42) rotate(21.23)" gradientUnits="userSpaceOnUse"><stop offset="0.06" stop-color="#9b4ec3"/><stop offset="0.32" stop-color="#823ec3"/><stop offset="0.8" stop-color="#603aa7"/><stop offset="0.96" stop-color="#523aa7"/></linearGradient><linearGradient id="Безымянный_градиент_88-3" x1="150.21" y1="100.65" x2="232.24" y2="100.65" gradientTransform="translate(49.42 -62.41) rotate(21.23)" xlink:href="#Безымянный_градиент_88"/></defs><title>1</title><g id="Слой_2" data-name="Слой 2"><g id="Слой_2-2" data-name="Слой 2"><path class="cls-1" d="M244,92.07,85.36.49a4.38,4.38,0,0,0-4.79.57c-1.08.75-4.86,2.8-4.86,3.14l3.61,145.67a4,4,0,0,0,2,3.49l158,94.58s3.55-2.33,4.74-3.06a4,4,0,0,0,1.91-3.42V95.56A4,4,0,0,0,244,92.07Z"/><path class="cls-2" d="M168.24,196.76,165,195.68c-32.3-10.71-72.39-10.81-104.86-.26h0C-8.53,217.75-9,273.28,59.34,295.94L62.6,297c32.3,10.71,72.39,10.81,104.85.25h0C236.1,275,236.54,219.42,168.24,196.76Z"/><path class="cls-3" d="M239.11,95.22,80.49,3.64a4,4,0,0,0-6,3.49V153a4,4,0,0,0,2,3.49l158.63,91.58a4,4,0,0,0,6-3.49V98.71A4,4,0,0,0,239.11,95.22Z"/><polygon class="cls-4" points="229.06 133.36 62.38 37.13 62.38 17.55 229.06 113.78 229.06 133.36"/><path class="cls-5" d="M73.62,33.73c0,2.13-1.29,3.1-2.89,2.18a6.9,6.9,0,0,1-2.88-5.5c0-2.13,1.29-3.1,2.88-2.18A6.88,6.88,0,0,1,73.62,33.73Z"/><path class="cls-5" d="M83.45,39.8c0,2.13-1.29,3.1-2.88,2.18a6.88,6.88,0,0,1-2.89-5.51c0-2.12,1.29-3.09,2.89-2.17A6.88,6.88,0,0,1,83.45,39.8Z"/><path class="cls-5" d="M93.53,45.81c0,2.12-1.29,3.1-2.88,2.18a6.92,6.92,0,0,1-2.89-5.51c0-2.12,1.3-3.1,2.89-2.18A6.92,6.92,0,0,1,93.53,45.81Z"/><path class="cls-6" d="M82.29,124.61l3.42-64.42c0-.57-3.62-2.58-4-2.87a1.61,1.61,0,0,0-1.79-.09l-79,46a1.68,1.68,0,0,0-.82,1.43L0,170.57A1.64,1.64,0,0,0,.88,172c.47.25,3.65,2.46,3.69,2.34L81.47,126A1.67,1.67,0,0,0,82.29,124.61Z"/><path class="cls-7" d="M85.8,126.87l.08-65.95a1.65,1.65,0,0,0-2.48-1.43l-79,46a1.63,1.63,0,0,0-.82,1.42l-.07,66A1.64,1.64,0,0,0,6,174.26l79-46A1.64,1.64,0,0,0,85.8,126.87Z"/><polygon class="cls-8" points="85.23 128.16 48.36 115.71 5.75 174.38 85.23 128.16"/><path class="cls-9" d="M83.79,59.34,5,105.21a.32.32,0,0,0,0,.58L49.28,122.7a.34.34,0,0,0,.4-.15L84.23,59.77A.32.32,0,0,0,83.79,59.34Z"/><path class="cls-10" d="M175,231.48c-.33.07-.65.17-1,.27,14.91-13.55,11.73-48.87-13.92-63.68-31.69-18.3-76.65-18.54-107.33-.83-13.22,7.63-24.09,17.69-27.35,27-1.52,4.35-.29,28.66.16,33.09,1.48,14.4,13,28.78,32.61,40.07,37,21.34,84.86,19.6,113.81,2.89,12.38-7.15,19.74-13.36,25.11-22.34V220.08S178,229.11,175,231.48ZM74,242.51c-4.3-3.34-8.23-7.13-12.51-10.51-1.61-1.27-3.75-2.65-5.71-4.2-1.89-2.42-3.71-4.91-5.51-7.4a9.14,9.14,0,0,0-7.28-4.12c2.36-7.68,8.59-14.7,18.22-20.26a76.18,76.18,0,0,1,8.64-4.28l-.54,3.94v0a.76.76,0,0,0-.08.11c-2.06,3.49-.41,28.21-.3,31.81.19,5.93,3.17,11.83,8.45,17.17A38.86,38.86,0,0,1,74,242.51Z"/><path class="cls-11" d="M197.14,220.08c-5.37,9-12.73,15.2-25.11,22.35-28.95,16.71-76.85,18.45-113.81-2.9-38.47-22.21-46-56.38-6.65-79.13,30.69-17.71,75.48-17.22,107.16,1.07,27.54,15.9,30.59,34.17,11.76,45-8.2,4.73-18.65,5.54-29.52.27l-.34.2c4.21,8.68,1.27,16-8,21.37-11.34,6.55-28.58,6.05-44-2.88-23-13.28-28.25-34.43-3.14-48.92,7.67-4.43,18.46-8.27,25.46-9.26l29.66,23.16c9.38,7.44,15.7,9.67,20.76,7,7.69-4.22,6.73-15.64-14.95-28.16-24.52-14.16-58.22-16.7-85.24-1.1-26.68,15.4-27.41,42,8.61,62.75,31.5,18.19,68.07,17.76,94.05,2.76,8.89-5.13,16.23-11.76,19.25-18.08Zm-93.4-36a31.36,31.36,0,0,0-6.16,2.68c-11.51,6.64-8.32,19,6.2,27.34,7.17,4.14,14.66,5,20.41,1.72,6.46-3.73,4.39-12.77-5-20Z"/><path class="cls-12" d="M225,169.32l14.53-8.17c21-11.94,26.77-48.56,12.65-84.9C237.34,38,206,14.44,181.92,23.22c-.2.07-1,.46-1,.46L162.69,34"/><ellipse class="cls-13" cx="194.15" cy="101.49" rx="46.8" ry="74.67" transform="translate(-23.57 77.19) rotate(-21.23)"/><ellipse class="cls-14" cx="191.23" cy="100.65" rx="36.22" ry="60.59" transform="translate(-23.47 76.07) rotate(-21.23)"/><path class="cls-5" d="M223.9,114.9c-1.09-2.81-2.56-4.76-4.36-5.8s-3.29-.78-4.4.77-1.6,3.74-1.6,6.71a23.43,23.43,0,0,0,1.58,8.58c1.1,2.81,2.58,4.76,4.38,5.8s3.28.78,4.38-.77,1.6-3.74,1.6-6.72A23.41,23.41,0,0,0,223.9,114.9Zm-2.06,11.84a1.51,1.51,0,0,1-2.3.67A6.05,6.05,0,0,1,217.2,124a17.42,17.42,0,0,1-1-5.93,9.3,9.3,0,0,1,1-4.79,1.52,1.52,0,0,1,2.31-.67,6.08,6.08,0,0,1,2.32,3.37,17.6,17.6,0,0,1,1,5.92A9.46,9.46,0,0,1,221.84,126.74ZM159.58,87.13l7,4V87.58l-7-4V78.39l7.78,4.5V79.32l-10.39-6V94.53l10.49,6V97l-7.88-4.55Zm19.79,10.12a5.08,5.08,0,0,0,1.09-3.7,11.8,11.8,0,0,0-1.13-5.09,10.05,10.05,0,0,0-4.07-4.58l-6.07-3.51v21.21l2.61,1.5V95.45L174.55,97l3.7,9.78,3.16,1.82-4.08-10.7A2.51,2.51,0,0,0,179.37,97.25Zm-4.23-3.42L171.8,91.9V85.48l3.36,1.94a5.34,5.34,0,0,1,2,2,5.23,5.23,0,0,1,.67,2.66c0,1.05-.24,1.71-.72,2A1.89,1.89,0,0,1,175.14,93.83Zm33.78,23.77a11.09,11.09,0,0,0,2.59-2.69,6.74,6.74,0,0,0,.8-3.53,11.69,11.69,0,0,0-1.28-5.3,8.67,8.67,0,0,0-3.26-3.72,3.39,3.39,0,0,0-3-.53,4.74,4.74,0,0,0-2.13,2.16l-.25.42,2,3.3.36-.56a3.72,3.72,0,0,1,1.45-1.5,1.55,1.55,0,0,1,1.48.2,3.66,3.66,0,0,1,1.41,1.61,5.46,5.46,0,0,1,.58,2.52,4.15,4.15,0,0,1-.5,2.13,7.88,7.88,0,0,1-2,2.07l-4.79,3.74v2.81l10.08,5.82V123l-6-3.45Zm-13.7-8.29,6.24,3.6v-3.83l-6.24-3.6Zm-2.69-.1a3.79,3.79,0,0,1-1.79,1,3,3,0,0,1-1.9-.5,7.92,7.92,0,0,1-3.07-3.83,14.6,14.6,0,0,1-1.3-6c0-2.11.44-3.64,1.29-4.56a2.24,2.24,0,0,1,3.08-.26,10.15,10.15,0,0,1,3.58,4.51l.46.93,1.68-1.82-.33-.68a22.53,22.53,0,0,0-2.37-3.9,10.1,10.1,0,0,0-3-2.63c-2-1.17-3.72-1.06-5.06.32s-2,3.56-2,6.56a21.13,21.13,0,0,0,2,8.85,13,13,0,0,0,5,6.12,5.18,5.18,0,0,0,3.12.87,4.42,4.42,0,0,0,2.43-1.28l.32-.31L193,108.81Z"/></g></g></svg>