<svg xmlns="http://www.w3.org/2000/svg" xmlns:xlink="http://www.w3.org/1999/xlink" width="243.26" height="320.27" viewBox="0 0 243.26 320.27"><defs><style>.cls-1{opacity:0.38;fill:url(#Безымянный_градиент_161);}.cls-2{fill:url(#Безымянный_градиент_110);}.cls-3{fill:url(#Безымянный_градиент_240);}.cls-4{fill:url(#Безымянный_градиент_240-2);}.cls-5{fill:url(#Безымянный_градиент_110-2);}.cls-6{fill:url(#Безымянный_градиент_290);}.cls-7{fill:url(#Безымянный_градиент_155);}.cls-8{fill:url(#Безымянный_градиент_110-3);}.cls-9{fill:url(#Безымянный_градиент_280);}.cls-10{opacity:0.49;}.cls-11{fill:#432498;}.cls-12{fill:url(#Безымянный_градиент_307);}.cls-13{fill:url(#Безымянный_градиент_305);}.cls-14{fill:url(#Безымянный_градиент_307-2);}.cls-15{fill:url(#Безымянный_градиент_307-3);}.cls-16{opacity:0.76;}.cls-17{fill:url(#Безымянный_градиент_305-2);}.cls-18{fill:url(#Безымянный_градиент_240-3);}.cls-19{fill:url(#Безымянный_градиент_88);}.cls-20{fill:url(#Безымянный_градиент_305-3);}</style><linearGradient id="Безымянный_градиент_161" x1="20.73" y1="261.85" x2="231.56" y2="261.85" gradientUnits="userSpaceOnUse"><stop offset="0.06" stop-color="#9b4ec3" stop-opacity="0"/><stop offset="1" stop-color="#6930be"/></linearGradient><linearGradient id="Безымянный_градиент_110" x1="118.65" y1="221.53" x2="182.84" y2="221.53" gradientUnits="userSpaceOnUse"><stop offset="0.2" stop-color="#823ec3"/><stop offset="0.3" stop-color="#733fbc"/><stop offset="0.51" stop-color="#4b42ab"/><stop offset="0.54" stop-color="#4543a8"/><stop offset="0.57" stop-color="#423fa4"/><stop offset="0.79" stop-color="#31268a"/><stop offset="0.93" stop-color="#2b1c80"/></linearGradient><linearGradient id="Безымянный_градиент_240" x1="155.27" y1="233.73" x2="183.25" y2="233.73" gradientUnits="userSpaceOnUse"><stop offset="0.22" stop-color="#7438b9"/><stop offset="0.54" stop-color="#5b2ea8"/><stop offset="0.76" stop-color="#482798"/><stop offset="1" stop-color="#37208a"/></linearGradient><linearGradient id="Безымянный_градиент_240-2" x1="118.65" y1="254.88" x2="155.27" y2="254.88" xlink:href="#Безымянный_градиент_240"/><linearGradient id="Безымянный_градиент_110-2" x1="48.78" y1="88.13" x2="273.09" y2="217.63" xlink:href="#Безымянный_градиент_110"/><linearGradient id="Безымянный_градиент_290" x1="77.16" y1="155.24" x2="237.58" y2="155.24" gradientUnits="userSpaceOnUse"><stop offset="0.02" stop-color="#aa5bd8"/><stop offset="0.48" stop-color="#813dd5"/><stop offset="0.99" stop-color="#7855e4"/></linearGradient><linearGradient id="Безымянный_градиент_155" x1="77.26" y1="216.03" x2="237.58" y2="216.03" gradientUnits="userSpaceOnUse"><stop offset="0.06" stop-color="#9b4ec3"/><stop offset="0.32" stop-color="#823ec3"/><stop offset="1" stop-color="#603aa7"/></linearGradient><linearGradient id="Безымянный_градиент_110-3" x1="40.54" y1="280.38" x2="179.83" y2="280.38" xlink:href="#Безымянный_градиент_110"/><linearGradient id="Безымянный_градиент_280" x1="40.82" y1="272.67" x2="179.83" y2="272.67" gradientUnits="userSpaceOnUse"><stop offset="0.07" stop-color="#b962db"/><stop offset="0.69" stop-color="#794cc3"/><stop offset="0.91" stop-color="#5724b3"/></linearGradient><linearGradient id="Безымянный_градиент_307" x1="115.24" y1="60.65" x2="189.32" y2="60.65" gradientUnits="userSpaceOnUse"><stop offset="0.02" stop-color="#4543a8"/><stop offset="0.09" stop-color="#423fa4"/><stop offset="0.61" stop-color="#31268a"/><stop offset="0.93" stop-color="#2b1c80"/></linearGradient><linearGradient id="Безымянный_градиент_305" x1="128.16" y1="65.65" x2="167.15" y2="65.65" gradientUnits="userSpaceOnUse"><stop offset="0" stop-color="#c061bc"/><stop offset="0.54" stop-color="#b962db"/><stop offset="1" stop-color="#8155cd"/></linearGradient><linearGradient id="Безымянный_градиент_307-2" x1="40.78" y1="152.27" x2="113.53" y2="152.27" xlink:href="#Безымянный_градиент_307"/><linearGradient id="Безымянный_градиент_307-3" x1="167.15" y1="174.79" x2="228.78" y2="174.79" xlink:href="#Безымянный_градиент_307"/><linearGradient id="Безымянный_градиент_305-2" x1="54.46" y1="151.47" x2="88.16" y2="151.47" xlink:href="#Безымянный_градиент_305"/><linearGradient id="Безымянный_градиент_240-3" x1="11.94" y1="158.68" x2="160.56" y2="158.68" xlink:href="#Безымянный_градиент_240"/><linearGradient id="Безымянный_градиент_88" y1="161.94" x2="148.62" y2="161.94" gradientUnits="userSpaceOnUse"><stop offset="0" stop-color="#8155cd"/><stop offset="0.54" stop-color="#b962db"/><stop offset="0.96" stop-color="#c061bc"/></linearGradient><linearGradient id="Безымянный_градиент_305-3" x1="181.66" y1="173.21" x2="214.27" y2="173.21" xlink:href="#Безымянный_градиент_305"/></defs><title>2</title><g id="Слой_2" data-name="Слой 2"><g id="Слой_1-2" data-name="Слой 1"><path class="cls-1" d="M180.6,216.86l-3.26-1c-32.3-9.72-72.39-9.81-104.86-.23h0c-68.65,20.25-69.08,70.64-.79,91.2l3.26,1c32.3,9.73,72.39,9.82,104.86.24h0C248.46,287.81,248.89,237.42,180.6,216.86Z"/><path class="cls-2" d="M180.35,200.39l-36.61-21v31.25c.73,15.81-6.11,21.12-12.57,24.86l-12.52,7.22,36.62,21.05s21.85-3.51,25.94-17.88S180.35,200.39,180.35,200.39Z"/><path class="cls-3" d="M183.19,231.38v-31h-2.84v31.25c.73,15.81-6.11,21.12-12.58,24.86l-12.51,7.22v3.36l13.92-8C176.39,254.89,184,249,183.19,231.38Z"/><polygon class="cls-4" points="118.65 242.67 118.65 246.03 155.27 267.08 155.27 263.72 118.65 242.67"/><path class="cls-5" d="M113.24,172.69l122.7,102.46s4.19-2.48,5.19-3c1.26-.71,2.06-2.42,2.05-4.86l.08-137.83c0-4.38-2.62-9.45-5.82-11.34L88.06,34.88c-1.6-.94-3.62-2-4.8-1.37-2,1-4.35,2.43-4.35,2.43l28.51,125.41C107.44,165.73,110,170.81,113.24,172.69Z"/><path class="cls-6" d="M83,189.72l148.77,84.72c3.2,1.89,5.78-.13,5.76-4.51l.08-137.83c0-4.38-2.62-9.46-5.82-11.34L83,36c-3.2-1.88-5.78.14-5.77,4.52l-.07,137.83C77.17,182.75,79.77,187.83,83,189.72Z"/><path class="cls-7" d="M83.07,190.32,231.81,275c3.2,1.89,5.78-.13,5.77-4.51V247.81L77.33,156.32,77.26,179C77.27,183.36,79.88,188.44,83.07,190.32Z"/><polyline class="cls-8" points="179.55 296.11 137.71 320.27 40.55 264.65 40.82 256.94 82.39 240.5 179.83 288.4"/><polygon class="cls-9" points="179.83 288.4 137.98 312.55 40.82 256.94 82.67 232.79 179.83 288.4"/><g class="cls-10"><polygon class="cls-11" points="83.91 249.35 78.17 246.03 72.42 249.35 78.17 252.66 83.91 249.35"/><polygon class="cls-11" points="86.19 257.33 91.93 254.01 86.19 250.7 80.45 254.01 86.19 257.33"/><polygon class="cls-11" points="94.22 261.99 99.96 258.68 94.22 255.36 88.47 258.68 94.22 261.99"/><polygon class="cls-11" points="102.24 266.66 107.98 263.34 102.24 260.03 96.5 263.34 102.24 266.66"/><polygon class="cls-11" points="110.27 271.32 116.01 268 110.27 264.69 104.53 268 110.27 271.32"/><polygon class="cls-11" points="118.29 275.98 124.04 272.67 118.29 269.35 112.55 272.67 118.29 275.98"/><polygon class="cls-11" points="126.32 280.65 132.06 277.33 126.32 274.02 120.58 277.33 126.32 280.65"/><polygon class="cls-11" points="134.34 285.31 140.09 282 134.34 278.68 128.6 282 134.34 285.31"/><polygon class="cls-11" points="142.37 289.98 148.11 286.66 142.37 283.34 136.63 286.66 142.37 289.98"/><polygon class="cls-11" points="150.4 288.01 144.66 291.32 150.4 294.64 156.14 291.32 150.4 288.01"/><polygon class="cls-11" points="91.99 244.69 86.25 241.37 80.51 244.69 86.25 248 91.99 244.69"/><polygon class="cls-11" points="94.28 252.66 100.02 249.35 94.28 246.03 88.53 249.35 94.28 252.66"/><polygon class="cls-11" points="102.3 257.33 108.04 254.01 102.3 250.7 96.56 254.01 102.3 257.33"/><polygon class="cls-11" points="110.33 261.99 116.07 258.68 110.33 255.36 104.58 258.68 110.33 261.99"/><polygon class="cls-11" points="118.35 266.66 124.09 263.34 118.35 260.03 112.61 263.34 118.35 266.66"/><polygon class="cls-11" points="126.38 271.32 132.12 268 126.38 264.69 120.64 268 126.38 271.32"/><polygon class="cls-11" points="134.4 275.98 140.15 272.67 134.4 269.35 128.66 272.67 134.4 275.98"/><polygon class="cls-11" points="142.43 280.65 148.17 277.33 142.43 274.02 136.69 277.33 142.43 280.65"/><polygon class="cls-11" points="150.46 285.31 156.2 282 150.46 278.68 144.71 282 150.46 285.31"/><polygon class="cls-11" points="158.48 283.34 152.74 286.66 158.48 289.98 164.22 286.66 158.48 283.34"/><polygon class="cls-11" points="75.91 254.01 70.17 250.7 64.42 254.01 70.17 257.33 75.91 254.01"/><polygon class="cls-11" points="72.45 258.68 78.19 261.99 83.93 258.68 78.19 255.36 72.45 258.68"/><polygon class="cls-11" points="91.96 263.34 86.22 260.03 80.48 263.34 86.22 266.66 91.96 263.34"/><polygon class="cls-11" points="99.99 268 94.24 264.69 88.5 268 94.24 271.32 99.99 268"/><polygon class="cls-11" points="108.01 272.67 102.27 269.35 96.53 272.67 102.27 275.98 108.01 272.67"/><polygon class="cls-11" points="116.04 277.33 110.3 274.02 104.55 277.33 110.3 280.65 116.04 277.33"/><polygon class="cls-11" points="124.06 282 118.32 278.68 112.58 282 118.32 285.31 124.06 282"/><polygon class="cls-11" points="132.09 286.66 126.35 283.34 120.61 286.66 126.35 289.98 132.09 286.66"/><polygon class="cls-11" points="148.14 295.99 134.37 288.01 128.63 291.32 142.4 299.3 148.14 295.99"/><polygon class="cls-11" points="136.66 295.99 142.4 299.3 148.14 295.99 142.4 292.67 136.66 295.99"/><polygon class="cls-11" points="62.17 255.36 56.42 258.68 62.17 261.99 67.91 258.68 62.17 255.36"/><polygon class="cls-11" points="70.19 260.03 64.45 263.34 70.19 266.66 75.94 263.34 70.19 260.03"/><polygon class="cls-11" points="108.03 282 108.04 282 106.6 281.17 100 277.34 100.01 277.33 97.14 275.67 91.98 272.68 91.99 272.67 87.68 270.18 78.22 264.69 72.48 268 80.51 272.67 80.5 272.67 81.94 273.5 88.54 277.33 88.53 277.33 91.4 278.99 96.57 281.99 96.55 282 100.86 284.48 104.6 286.65 104.58 286.66 110.32 289.98 116.06 286.66 108.03 282"/><polygon class="cls-11" points="118.35 288.01 112.61 291.32 118.35 294.64 124.09 291.32 118.35 288.01"/><polygon class="cls-11" points="126.37 292.67 120.63 295.99 126.37 299.3 132.12 295.99 126.37 292.67"/><polygon class="cls-11" points="128.66 300.65 134.4 303.96 140.14 300.65 134.4 297.33 128.66 300.65"/></g><path class="cls-12" d="M184.35,36.89,121.27.54a4,4,0,0,0-6,3.47V70.26a9.93,9.93,0,0,0,5,8.6l19.5,11.24,10.1,31.2,7.63-21,25.85,14.9a4,4,0,0,0,6-3.47V45.49A10,10,0,0,0,184.35,36.89Z"/><g id="icon_Telegram_Обтравочный_контур" data-name="icon_Telegram Обтравочный контур"><path class="cls-13" d="M166.73,46.73h-38c-.8-.06-.79,1.4,0,2.24l7.9,8.35,3.18,15c.2.92.84,1,1.35.8l4.4-2.07c.47-.22,1.12.14,1.6.87l7.94,12c.55.83,1.32.89,1.46.12l10.35-36C167.09,47.18,167.42,46.79,166.73,46.73Zm-7.86,4.83L142.24,62.07c-.44.28-.63.32-.71,1L141,67.51c0,.28-.16,1.08-.35.95a4.42,4.42,0,0,1-.43-1.33l-1.72-9.06c-.2-1,.14-1.16.73-1.29l19.32-6c.13,0,.54-.15.65,0C159.41,51.13,159,51.49,158.87,51.56Z"/></g><path class="cls-14" d="M100.44,201.19V179.35l13.08,1.44-13.08-20V138.69a9.89,9.89,0,0,0-5-8.58L46.79,99.9a4,4,0,0,0-6,3.46v62.5a9.91,9.91,0,0,0,4.95,8.58l48.71,30.21A4,4,0,0,0,100.44,201.19Z"/><path class="cls-15" d="M225.17,155.51l-53.64-30.62a2.91,2.91,0,0,0-4.37,2.52V186a7.24,7.24,0,0,0,3.61,6.26l17.58,10.11,7.34,22.68,5.55-15.26,23.17,13.09a2.91,2.91,0,0,0,4.37-2.52V161.77A7.22,7.22,0,0,0,225.17,155.51Z"/><g class="cls-16"><path class="cls-17" d="M54.46,160.48l8,4.63V140.53l-8-4.62Zm33.7,4a6.82,6.82,0,0,0-2.11-5c1,.2,1.5-.61,1.52-2a6.65,6.65,0,0,0-2.18-4.78c-.73-.53-9.19-5.87-9.19-5.87A3.93,3.93,0,0,1,75,143.16l.37-2.08a24,24,0,0,0,.62-7.19l0-.48a21.53,21.53,0,0,0-1.72-6.34,3.36,3.36,0,0,0-2.5-2.13c-.45,0-.74.51-.74,1.23v1.25c0,3.93-.13,7.73-1.41,10.46l-1.41,3a3.57,3.57,0,0,1-2,2l-.08,0a2,2,0,0,0-.62.37V164a9.52,9.52,0,0,0,2.52,4h0a25.05,25.05,0,0,0,3.94,2.85s10.15,6.12,12.2,7.12c1,.49,2.25-.3,2.3-1.87a5.84,5.84,0,0,0-1-3.36l.07,0c1.6.93,2.26-.34,2.31-2.12a5.33,5.33,0,0,0-1.52-3.9C87.2,166.92,88.1,166.47,88.16,164.52Z"/></g><path class="cls-18" d="M150,133.54c-9.88-25.43-25.48-47-43.92-60.75-17.06-12.71-34.87-17.54-50.89-14-2.32.52-16.09,5-18.32,5.86-17.7,6.87-18.47,20-23,43.95-4.33,22.6-1.28,49,8.6,74.47s25.48,47,43.92,60.74c13.41,10,27.28,15.11,40.39,15.11,6,0,4.37,1,5.51.67,3.35-1,18.21-6.79,21.11-8.74,12.69-8.56,21.52-23.42,25.25-42.88C163,185.41,159.91,159,150,133.54ZM27.3,119.64c3.53-18.42,12.34-31.24,24.83-36.09a31.92,31.92,0,0,1,11.61-2.12c9.76,0,20.44,4.07,31.06,12s20.32,19,28.17,32.23L40.28,197.23q-2.81-5.68-5.17-11.76C26.29,162.76,23.51,139.38,27.3,119.64Zm114,93.46c-3.53,18.42-12.35,31.23-24.83,36.08s-27.64,1.35-42.68-9.85a108.21,108.21,0,0,1-25.65-28.17l82.26-71.23q1.62,3.6,3.08,7.33C142.3,170,145.08,193.36,141.3,213.1Z"/><path class="cls-19" d="M138.1,137.16c-9.88-25.43-25.48-47-43.92-60.74-19.53-14.55-40-18.78-57.72-11.9S6.5,88.34,1.92,112.26c-4.33,22.59-1.28,49,8.6,74.46s25.48,47,43.92,60.74c13.41,10,27.28,15.11,40.39,15.11a47.59,47.59,0,0,0,17.32-3.21c17.7-6.87,30-23.83,34.55-47.74C151,189,148,162.58,138.1,137.16Zm-120.79-22C20.84,96.79,29.66,84,42.14,79.12A31.94,31.94,0,0,1,53.76,77c9.75,0,20.43,4.07,31.05,12s20.32,19,28.17,32.23L30.29,192.8C28.42,189,26.7,185.08,25.13,181,16.3,158.33,13.52,134.94,17.31,115.21Zm114,93.46c-3.53,18.42-12.35,31.23-24.83,36.08s-27.64,1.35-42.68-9.86a107.89,107.89,0,0,1-25.65-28.17l82.26-71.22q1.62,3.6,3.08,7.33C132.32,165.55,135.09,188.93,131.31,208.67Z"/><path class="cls-20" d="M191.49,183.33c-3.06-2.16-5.1-5.34-6.25-9.86l2.83,1.63,0-.2a15.85,15.85,0,0,1-3.72-5.3,15.48,15.48,0,0,1-1.46-6.36l2.82,2.66.06-.12c-2.92-5-3.58-9.28-2-13.08,3.68,7.86,8.25,13.64,13.88,17.41,0-.41-.07-.74-.1-1.07-.33-3.86,1.13-6.68,3.6-6.93s5.64,2.11,7.66,5.85c.25.46.46.68.77.72.63.1,1.27.26,1.89.3a17.84,17.84,0,0,0,1.8-.06c0,1.14-1,2.31-2.57,3.27.38.13.76.28,1.13.38a10,10,0,0,0,1.16.25,4.47,4.47,0,0,1,1.23.28,20.92,20.92,0,0,1-1.5,1.48,5.87,5.87,0,0,1-1.37.84c-.29.14-.4.39-.4.9,0,8.48-2.48,14.07-7.45,16.52-3.43,1.69-7.45.88-11.83-1.7a32.76,32.76,0,0,1-9.67-9.22l-.39-.56C185.35,183.89,188.56,184.59,191.49,183.33Z"/></g></g></svg>