<svg xmlns="http://www.w3.org/2000/svg" xmlns:xlink="http://www.w3.org/1999/xlink" width="243.26" height="320.27" viewBox="0 0 243.26 320.27"><defs><style>.cls-11{fill:#432498}</style><linearGradient id="Безымянный_градиент_161" x1="20.73" y1="261.85" x2="231.56" y2="261.85" gradientUnits="userSpaceOnUse"><stop offset=".06" stop-color="#9b4ec3" stop-opacity="0"/><stop offset="1" stop-color="#6930be"/></linearGradient><linearGradient id="Безымянный_градиент_110" x1="118.65" y1="221.53" x2="182.84" y2="221.53" gradientUnits="userSpaceOnUse"><stop offset=".2" stop-color="#823ec3"/><stop offset=".3" stop-color="#733fbc"/><stop offset=".51" stop-color="#4b42ab"/><stop offset=".54" stop-color="#4543a8"/><stop offset=".57" stop-color="#423fa4"/><stop offset=".79" stop-color="#31268a"/><stop offset=".93" stop-color="#2b1c80"/></linearGradient><linearGradient id="Безымянный_градиент_240" x1="155.27" y1="233.73" x2="183.25" y2="233.73" gradientUnits="userSpaceOnUse"><stop offset=".22" stop-color="#7438b9"/><stop offset=".54" stop-color="#5b2ea8"/><stop offset=".76" stop-color="#482798"/><stop offset="1" stop-color="#37208a"/></linearGradient><linearGradient id="Безымянный_градиент_240-2" x1="118.65" y1="254.88" x2="155.27" y2="254.88" xlink:href="#Безымянный_градиент_240"/><linearGradient id="Безымянный_градиент_110-2" x1="48.78" y1="88.13" x2="273.09" y2="217.63" xlink:href="#Безымянный_градиент_110"/><linearGradient id="Безымянный_градиент_290" x1="77.16" y1="155.24" x2="237.58" y2="155.24" gradientUnits="userSpaceOnUse"><stop offset=".02" stop-color="#aa5bd8"/><stop offset=".48" stop-color="#813dd5"/><stop offset=".99" stop-color="#7855e4"/></linearGradient><linearGradient id="Безымянный_градиент_155" x1="77.26" y1="216.03" x2="237.58" y2="216.03" gradientUnits="userSpaceOnUse"><stop offset=".06" stop-color="#9b4ec3"/><stop offset=".32" stop-color="#823ec3"/><stop offset="1" stop-color="#603aa7"/></linearGradient><linearGradient id="Безымянный_градиент_110-3" x1="40.54" y1="280.38" x2="179.83" y2="280.38" xlink:href="#Безымянный_градиент_110"/><linearGradient id="Безымянный_градиент_280" x1="40.82" y1="272.67" x2="179.83" y2="272.67" gradientUnits="userSpaceOnUse"><stop offset=".07" stop-color="#b962db"/><stop offset=".69" stop-color="#794cc3"/><stop offset=".91" stop-color="#5724b3"/></linearGradient><linearGradient id="Безымянный_градиент_307" x1="115.24" y1="60.65" x2="189.32" y2="60.65" gradientUnits="userSpaceOnUse"><stop offset=".02" stop-color="#4543a8"/><stop offset=".09" stop-color="#423fa4"/><stop offset=".61" stop-color="#31268a"/><stop offset=".93" stop-color="#2b1c80"/></linearGradient><linearGradient id="Безымянный_градиент_305" x1="128.16" y1="65.65" x2="167.15" y2="65.65" gradientUnits="userSpaceOnUse"><stop offset="0" stop-color="#c061bc"/><stop offset=".54" stop-color="#b962db"/><stop offset="1" stop-color="#8155cd"/></linearGradient><linearGradient id="Безымянный_градиент_307-2" x1="40.78" y1="152.27" x2="113.53" y2="152.27" xlink:href="#Безымянный_градиент_307"/><linearGradient id="Безымянный_градиент_307-3" x1="167.15" y1="174.79" x2="228.78" y2="174.79" xlink:href="#Безымянный_градиент_307"/><linearGradient id="Безымянный_градиент_305-2" x1="54.46" y1="151.47" x2="88.16" y2="151.47" xlink:href="#Безымянный_градиент_305"/><linearGradient id="Безымянный_градиент_240-3" x1="11.94" y1="158.68" x2="160.56" y2="158.68" xlink:href="#Безымянный_градиент_240"/><linearGradient id="Безымянный_градиент_88" y1="161.94" x2="148.62" y2="161.94" gradientUnits="userSpaceOnUse"><stop offset="0" stop-color="#8155cd"/><stop offset=".54" stop-color="#b962db"/><stop offset=".96" stop-color="#c061bc"/></linearGradient><linearGradient id="Безымянный_градиент_305-3" x1="181.66" y1="173.21" x2="214.27" y2="173.21" xlink:href="#Безымянный_градиент_305"/></defs><title>2</title><g id="Слой_2" data-name="Слой 2"><g id="Слой_1-2" data-name="Слой 1"><path d="M180.6 216.86l-3.26-1c-32.3-9.72-72.39-9.81-104.86-.23-68.65 20.25-69.08 70.64-.79 91.2l3.26 1c32.3 9.73 72.39 9.82 104.86.24 68.65-20.26 69.08-70.65.79-91.21z" style="opacity:.38;fill:url(#Безымянный_градиент_161)"/><path d="M180.35 200.39l-36.61-21v31.25c.73 15.81-6.11 21.12-12.57 24.86l-12.52 7.22 36.62 21.05s21.85-3.51 25.94-17.88-.86-45.5-.86-45.5z" style="fill:url(#Безымянный_градиент_110)"/><path d="M183.19 231.38v-31h-2.84v31.25c.73 15.81-6.11 21.12-12.58 24.86l-12.51 7.22v3.36l13.92-8c7.21-4.18 14.82-10.07 14.01-27.69z" style="fill:url(#Безымянный_градиент_240)"/><path d="M118.65 242.67v3.36l36.62 21.05v-3.36l-36.62-21.05z" style="fill:url(#Безымянный_градиент_240-2)"/><path d="M113.24 172.69l122.7 102.46s4.19-2.48 5.19-3c1.26-.71 2.06-2.42 2.05-4.86l.08-137.83c0-4.38-2.62-9.45-5.82-11.34L88.06 34.88c-1.6-.94-3.62-2-4.8-1.37-2 1-4.35 2.43-4.35 2.43l28.51 125.41c.02 4.38 2.58 9.46 5.82 11.34z" style="fill:url(#Безымянный_градиент_110-2)"/><path d="M83 189.72l148.77 84.72c3.2 1.89 5.78-.13 5.76-4.51l.08-137.83c0-4.38-2.62-9.46-5.82-11.34L83 36c-3.2-1.88-5.78.14-5.77 4.52l-.07 137.83c.01 4.4 2.61 9.48 5.84 11.37z" style="fill:url(#Безымянный_градиент_290)"/><path d="M83.07 190.32L231.81 275c3.2 1.89 5.78-.13 5.77-4.51v-22.68L77.33 156.32 77.26 179c.01 4.36 2.62 9.44 5.81 11.32z" style="fill:url(#Безымянный_градиент_155)"/><path d="M179.55 296.11l-41.84 24.16-97.16-55.62.27-7.71 41.57-16.44 97.44 47.9" style="fill:url(#Безымянный_градиент_110-3)"/><path d="M179.83 288.4l-41.85 24.15-97.16-55.61 41.85-24.15 97.16 55.61z" style="fill:url(#Безымянный_градиент_280)"/><g style="opacity:.49"><path class="cls-11" d="M83.91 249.35l-5.74-3.32-5.75 3.32 5.75 3.31 5.74-3.31zM86.19 257.33l5.74-3.32-5.74-3.31-5.74 3.31 5.74 3.32zM94.22 261.99l5.74-3.31-5.74-3.32-5.75 3.32 5.75 3.31zM102.24 266.66l5.74-3.32-5.74-3.31-5.74 3.31 5.74 3.32zM110.27 271.32l5.74-3.32-5.74-3.31-5.74 3.31 5.74 3.32zM118.29 275.98l5.75-3.31-5.75-3.32-5.74 3.32 5.74 3.31zM126.32 280.65l5.74-3.32-5.74-3.31-5.74 3.31 5.74 3.32zM134.34 285.31l5.75-3.31-5.75-3.32-5.74 3.32 5.74 3.31zM142.37 289.98l5.74-3.32-5.74-3.32-5.74 3.32 5.74 3.32zM150.4 288.01l-5.74 3.31 5.74 3.32 5.74-3.32-5.74-3.31zM91.99 244.69l-5.74-3.32-5.74 3.32 5.74 3.31 5.74-3.31zM94.28 252.66l5.74-3.31-5.74-3.32-5.75 3.32 5.75 3.31zM102.3 257.33l5.74-3.32-5.74-3.31-5.74 3.31 5.74 3.32zM110.33 261.99l5.74-3.31-5.74-3.32-5.75 3.32 5.75 3.31zM118.35 266.66l5.74-3.32-5.74-3.31-5.74 3.31 5.74 3.32zM126.38 271.32l5.74-3.32-5.74-3.31-5.74 3.31 5.74 3.32zM134.4 275.98l5.75-3.31-5.75-3.32-5.74 3.32 5.74 3.31zM142.43 280.65l5.74-3.32-5.74-3.31-5.74 3.31 5.74 3.32zM150.46 285.31l5.74-3.31-5.74-3.32-5.75 3.32 5.75 3.31zM158.48 283.34l-5.74 3.32 5.74 3.32 5.74-3.32-5.74-3.32zM75.91 254.01l-5.74-3.31-5.75 3.31 5.75 3.32 5.74-3.32zM72.45 258.68l5.74 3.31 5.74-3.31-5.74-3.32-5.74 3.32zM91.96 263.34l-5.74-3.31-5.74 3.31 5.74 3.32 5.74-3.32zM99.99 268l-5.75-3.31L88.5 268l5.74 3.32 5.75-3.32zM108.01 272.67l-5.74-3.32-5.74 3.32 5.74 3.31 5.74-3.31zM116.04 277.33l-5.74-3.31-5.75 3.31 5.75 3.32 5.74-3.32zM124.06 282l-5.74-3.32-5.74 3.32 5.74 3.31 5.74-3.31zM132.09 286.66l-5.74-3.32-5.74 3.32 5.74 3.32 5.74-3.32zM148.14 295.99l-13.77-7.98-5.74 3.31 13.77 7.98 5.74-3.31z"/><path class="cls-11" d="M136.66 295.99l5.74 3.31 5.74-3.31-5.74-3.32-5.74 3.32zM62.17 255.36l-5.75 3.32 5.75 3.31 5.74-3.31-5.74-3.32zM70.19 260.03l-5.74 3.31 5.74 3.32 5.75-3.32-5.75-3.31zM108.03 282h.01l-1.44-.83-6.6-3.83.01-.01-2.87-1.66-5.16-2.99.01-.01-4.31-2.49-9.46-5.49-5.74 3.31 8.03 4.67h-.01l1.44.83 6.6 3.83h-.01l2.87 1.66 5.17 3-.02.01 4.31 2.48 3.74 2.17-.02.01 5.74 3.32 5.74-3.32-8.03-4.66zM118.35 288.01l-5.74 3.31 5.74 3.32 5.74-3.32-5.74-3.31zM126.37 292.67l-5.74 3.32 5.74 3.31 5.75-3.31-5.75-3.32zM128.66 300.65l5.74 3.31 5.74-3.31-5.74-3.32-5.74 3.32z"/></g><path d="M184.35 36.89L121.27.54a4 4 0 0 0-6 3.47v66.25a9.93 9.93 0 0 0 5 8.6l19.5 11.24 10.1 31.2 7.63-21 25.85 14.9a4 4 0 0 0 6-3.47V45.49a10 10 0 0 0-5-8.6z" style="fill:url(#Безымянный_градиент_307)"/><path d="M166.73 46.73h-38c-.8-.06-.79 1.4 0 2.24l7.9 8.35 3.18 15c.2.92.84 1 1.35.8l4.4-2.07c.47-.22 1.12.14 1.6.87l7.94 12c.55.83 1.32.89 1.46.12l10.35-36c.18-.86.51-1.25-.18-1.31zm-7.86 4.83l-16.63 10.51c-.44.28-.63.32-.71 1l-.53 4.44c0 .28-.16 1.08-.35.95a4.42 4.42 0 0 1-.43-1.33l-1.72-9.06c-.2-1 .14-1.16.73-1.29l19.32-6c.13 0 .54-.15.65 0 .21.35-.2.71-.33.78z" id="icon_Telegram_Обтравочный_контур" data-name="icon_Telegram Обтравочный контур" style="fill:url(#Безымянный_градиент_305)"/><path d="M100.44 201.19v-21.84l13.08 1.44-13.08-20v-22.1a9.89 9.89 0 0 0-5-8.58L46.79 99.9a4 4 0 0 0-6 3.46v62.5a9.91 9.91 0 0 0 4.95 8.58l48.71 30.21a4 4 0 0 0 5.99-3.46z" style="fill:url(#Безымянный_градиент_307-2)"/><path d="M225.17 155.51l-53.64-30.62a2.91 2.91 0 0 0-4.37 2.52V186a7.24 7.24 0 0 0 3.61 6.26l17.58 10.11 7.34 22.68 5.55-15.26 23.17 13.09a2.91 2.91 0 0 0 4.37-2.52v-58.59a7.22 7.22 0 0 0-3.61-6.26z" style="fill:url(#Безымянный_градиент_307-3)"/><g style="opacity:.76"><path d="M54.46 160.48l8 4.63v-24.58l-8-4.62zm33.7 4a6.82 6.82 0 0 0-2.11-5c1 .2 1.5-.61 1.52-2a6.65 6.65 0 0 0-2.18-4.78c-.73-.53-9.19-5.87-9.19-5.87a3.93 3.93 0 0 1-1.2-3.67l.37-2.08a24 24 0 0 0 .62-7.19v-.48a21.53 21.53 0 0 0-1.72-6.34 3.36 3.36 0 0 0-2.5-2.13c-.45 0-.74.51-.74 1.23v1.25c0 3.93-.13 7.73-1.41 10.46l-1.41 3a3.57 3.57 0 0 1-2 2h-.08a2 2 0 0 0-.62.37V164a9.52 9.52 0 0 0 2.52 4 25.05 25.05 0 0 0 3.94 2.85s10.15 6.12 12.2 7.12c1 .49 2.25-.3 2.3-1.87a5.84 5.84 0 0 0-1-3.36h.07c1.6.93 2.26-.34 2.31-2.12a5.33 5.33 0 0 0-1.52-3.9c.87.2 1.77-.25 1.83-2.2z" style="fill:url(#Безымянный_градиент_305-2)"/></g><path d="M150 133.54c-9.88-25.43-25.48-47-43.92-60.75-17.06-12.71-34.87-17.54-50.89-14-2.32.52-16.09 5-18.32 5.86-17.7 6.87-18.47 20-23 43.95-4.33 22.6-1.28 49 8.6 74.47s25.48 47 43.92 60.74c13.41 10 27.28 15.11 40.39 15.11 6 0 4.37 1 5.51.67 3.35-1 18.21-6.79 21.11-8.74 12.69-8.56 21.52-23.42 25.25-42.88 4.35-22.56 1.26-48.97-8.65-74.43zm-122.7-13.9c3.53-18.42 12.34-31.24 24.83-36.09a31.92 31.92 0 0 1 11.61-2.12c9.76 0 20.44 4.07 31.06 12s20.32 19 28.17 32.23l-82.69 71.57q-2.81-5.68-5.17-11.76c-8.82-22.71-11.6-46.09-7.81-65.83zm114 93.46c-3.53 18.42-12.35 31.23-24.83 36.08s-27.64 1.35-42.68-9.85a108.21 108.21 0 0 1-25.65-28.17l82.26-71.23q1.62 3.6 3.08 7.33c8.82 22.74 11.6 46.1 7.82 65.84z" style="fill:url(#Безымянный_градиент_240-3)"/><path d="M138.1 137.16c-9.88-25.43-25.48-47-43.92-60.74-19.53-14.55-40-18.78-57.72-11.9S6.5 88.34 1.92 112.26c-4.33 22.59-1.28 49 8.6 74.46s25.48 47 43.92 60.74c13.41 10 27.28 15.11 40.39 15.11a47.59 47.59 0 0 0 17.32-3.21c17.7-6.87 30-23.83 34.55-47.74 4.3-22.62 1.3-49.04-8.6-74.46zm-120.79-22C20.84 96.79 29.66 84 42.14 79.12A31.94 31.94 0 0 1 53.76 77c9.75 0 20.43 4.07 31.05 12s20.32 19 28.17 32.23L30.29 192.8c-1.87-3.8-3.59-7.72-5.16-11.8-8.83-22.67-11.61-46.06-7.82-65.79zm114 93.46c-3.53 18.42-12.35 31.23-24.83 36.08s-27.64 1.35-42.68-9.86a107.89 107.89 0 0 1-25.65-28.17l82.26-71.22q1.62 3.6 3.08 7.33c8.83 22.77 11.6 46.15 7.82 65.89z" style="fill:url(#Безымянный_градиент_88)"/><path d="M191.49 183.33c-3.06-2.16-5.1-5.34-6.25-9.86l2.83 1.63v-.2a15.85 15.85 0 0 1-3.72-5.3 15.48 15.48 0 0 1-1.46-6.36l2.82 2.66.06-.12c-2.92-5-3.58-9.28-2-13.08 3.68 7.86 8.25 13.64 13.88 17.41 0-.41-.07-.74-.1-1.07-.33-3.86 1.13-6.68 3.6-6.93s5.64 2.11 7.66 5.85c.25.46.46.68.77.72.63.1 1.27.26 1.89.3a17.84 17.84 0 0 0 1.8-.06c0 1.14-1 2.31-2.57 3.27.38.13.76.28 1.13.38a10 10 0 0 0 1.16.25 4.47 4.47 0 0 1 1.23.28 20.92 20.92 0 0 1-1.5 1.48 5.87 5.87 0 0 1-1.37.84c-.29.14-.4.39-.4.9 0 8.48-2.48 14.07-7.45 16.52-3.43 1.69-7.45.88-11.83-1.7a32.76 32.76 0 0 1-9.67-9.22l-.39-.56c3.74 2.53 6.95 3.23 9.88 1.97z" style="fill:url(#Безымянный_градиент_305-3)"/></g></g></svg>