<svg xmlns="http://www.w3.org/2000/svg" xmlns:xlink="http://www.w3.org/1999/xlink" width="222.13" height="293.51" viewBox="0 0 222.13 293.51"><defs><style>.cls-78{fill:none}</style><linearGradient id="Безымянный_градиент_161" x1="4.16" y1="240.18" x2="214.98" y2="240.18" gradientUnits="userSpaceOnUse"><stop offset=".06" stop-color="#9b4ec3" stop-opacity="0"/><stop offset="1" stop-color="#6930be"/></linearGradient><linearGradient id="Безымянный_градиент_319" x1="98.11" y1="2.57" x2="216" y2="206.76" gradientUnits="userSpaceOnUse"><stop offset=".35" stop-color="#823ec3"/><stop offset=".46" stop-color="#733fbc"/><stop offset=".66" stop-color="#4b42ab"/><stop offset=".69" stop-color="#4543a8"/><stop offset=".77" stop-color="#3e389d"/><stop offset="1" stop-color="#2b1c80"/></linearGradient><linearGradient id="Безымянный_градиент_155" x1="117.72" y1="240.93" x2="117.72" y2="13.42" gradientTransform="rotate(21.23 117.7 127.176)" gradientUnits="userSpaceOnUse"><stop offset=".06" stop-color="#9b4ec3"/><stop offset=".32" stop-color="#823ec3"/><stop offset="1" stop-color="#603aa7"/></linearGradient><linearGradient id="Безымянный_градиент_333" x1="47.8" y1="125.84" x2="178.34" y2="125.84" gradientTransform="rotate(21.23 113.059 125.837)" gradientUnits="userSpaceOnUse"><stop offset=".18" stop-color="#955ad2"/><stop offset=".54" stop-color="#b962db"/><stop offset=".96" stop-color="#b561d7"/></linearGradient><linearGradient id="Безымянный_градиент_110" x1="70.34" y1="199.25" x2="24.29" y2="199.25" gradientUnits="userSpaceOnUse"><stop offset=".2" stop-color="#823ec3"/><stop offset=".3" stop-color="#733fbc"/><stop offset=".51" stop-color="#4b42ab"/><stop offset=".54" stop-color="#4543a8"/><stop offset=".57" stop-color="#423fa4"/><stop offset=".79" stop-color="#31268a"/><stop offset=".93" stop-color="#2b1c80"/></linearGradient><linearGradient id="Безымянный_градиент_88" x1="24.29" y1="193.3" x2="70.33" y2="193.3" gradientUnits="userSpaceOnUse"><stop offset="0" stop-color="#8155cd"/><stop offset=".54" stop-color="#b962db"/><stop offset=".96" stop-color="#c061bc"/></linearGradient><linearGradient id="Безымянный_градиент_106" x1="35.48" y1="192.99" x2="59.15" y2="192.99" gradientUnits="userSpaceOnUse"><stop offset=".05" stop-color="#823ec3"/><stop offset="1" stop-color="#9741cf"/></linearGradient><linearGradient id="Безымянный_градиент_110-2" x1="70.34" y1="191.76" x2="24.29" y2="191.76" xlink:href="#Безымянный_градиент_110"/><linearGradient id="Безымянный_градиент_88-2" x1="24.29" y1="185.81" x2="70.33" y2="185.81" xlink:href="#Безымянный_градиент_88"/><linearGradient id="Безымянный_градиент_106-2" x1="35.48" y1="185.5" x2="59.15" y2="185.5" xlink:href="#Безымянный_градиент_106"/><linearGradient id="Безымянный_градиент_110-3" x1="70.34" y1="184.07" x2="24.29" y2="184.07" xlink:href="#Безымянный_градиент_110"/><linearGradient id="Безымянный_градиент_88-3" x1="24.29" y1="178.12" x2="70.33" y2="178.12" xlink:href="#Безымянный_градиент_88"/><linearGradient id="Безымянный_градиент_106-3" x1="35.48" y1="177.81" x2="59.15" y2="177.81" xlink:href="#Безымянный_градиент_106"/><linearGradient id="Безымянный_градиент_110-4" x1="70.34" y1="176.58" x2="24.29" y2="176.58" xlink:href="#Безымянный_градиент_110"/><linearGradient id="Безымянный_градиент_88-4" x1="24.29" y1="170.63" x2="70.33" y2="170.63" xlink:href="#Безымянный_градиент_88"/><linearGradient id="Безымянный_градиент_106-4" x1="35.48" y1="170.32" x2="59.15" y2="170.32" xlink:href="#Безымянный_градиент_106"/><linearGradient id="Безымянный_градиент_110-5" x1="70.33" y1="168.9" x2="24.29" y2="168.9" xlink:href="#Безымянный_градиент_110"/><linearGradient id="Безымянный_градиент_88-5" x1="24.29" y1="162.95" x2="70.32" y2="162.95" xlink:href="#Безымянный_градиент_88"/><linearGradient id="Безымянный_градиент_106-5" x1="35.48" y1="162.65" x2="59.14" y2="162.65" xlink:href="#Безымянный_градиент_106"/><linearGradient id="Безымянный_градиент_110-6" x1="70.33" y1="161.41" x2="24.29" y2="161.41" xlink:href="#Безымянный_градиент_110"/><linearGradient id="Безымянный_градиент_88-6" x1="24.29" y1="155.46" x2="70.32" y2="155.46" xlink:href="#Безымянный_градиент_88"/><linearGradient id="Безымянный_градиент_106-6" x1="35.48" y1="155.16" x2="59.14" y2="155.16" xlink:href="#Безымянный_градиент_106"/><linearGradient id="Безымянный_градиент_110-7" x1="70.33" y1="153.72" x2="24.29" y2="153.72" xlink:href="#Безымянный_градиент_110"/><linearGradient id="Безымянный_градиент_88-7" x1="24.29" y1="147.77" x2="70.32" y2="147.77" xlink:href="#Безымянный_градиент_88"/><linearGradient id="Безымянный_градиент_106-7" x1="35.48" y1="147.47" x2="59.14" y2="147.47" xlink:href="#Безымянный_градиент_106"/><linearGradient id="Безымянный_градиент_110-8" x1="70.33" y1="146.23" x2="24.29" y2="146.23" xlink:href="#Безымянный_градиент_110"/><linearGradient id="Безымянный_градиент_88-8" x1="24.29" y1="140.28" x2="70.32" y2="140.28" xlink:href="#Безымянный_градиент_88"/><linearGradient id="Безымянный_градиент_106-8" x1="35.48" y1="139.98" x2="59.14" y2="139.98" xlink:href="#Безымянный_градиент_106"/><linearGradient id="Безымянный_градиент_110-9" x1="70.33" y1="138.9" x2="24.28" y2="138.9" xlink:href="#Безымянный_градиент_110"/><linearGradient id="Безымянный_градиент_88-9" x1="24.28" y1="132.95" x2="70.32" y2="132.95" xlink:href="#Безымянный_градиент_88"/><linearGradient id="Безымянный_градиент_327" x1="35.47" y1="132.64" x2="59.14" y2="132.64" gradientUnits="userSpaceOnUse"><stop offset=".16" stop-color="#794cc3"/><stop offset=".91" stop-color="#5724b3"/></linearGradient><linearGradient id="Безымянный_градиент_110-10" x1="112.58" y1="235.45" x2="66.54" y2="235.45" xlink:href="#Безымянный_градиент_110"/><linearGradient id="Безымянный_градиент_88-10" x1="66.54" y1="229.5" x2="112.57" y2="229.5" xlink:href="#Безымянный_градиент_88"/><linearGradient id="Безымянный_градиент_106-9" x1="77.73" y1="229.2" x2="101.39" y2="229.2" xlink:href="#Безымянный_градиент_106"/><linearGradient id="Безымянный_градиент_110-11" x1="112.58" y1="227.96" x2="66.54" y2="227.96" xlink:href="#Безымянный_градиент_110"/><linearGradient id="Безымянный_градиент_88-11" x1="66.54" y1="222.01" x2="112.57" y2="222.01" xlink:href="#Безымянный_градиент_88"/><linearGradient id="Безымянный_градиент_106-10" x1="77.73" y1="221.71" x2="101.39" y2="221.71" xlink:href="#Безымянный_градиент_106"/><linearGradient id="Безымянный_градиент_110-12" x1="112.58" y1="220.27" x2="66.54" y2="220.27" xlink:href="#Безымянный_градиент_110"/><linearGradient id="Безымянный_градиент_88-12" x1="66.54" y1="214.32" x2="112.57" y2="214.32" xlink:href="#Безымянный_градиент_88"/><linearGradient id="Безымянный_градиент_106-11" x1="77.73" y1="214.02" x2="101.39" y2="214.02" xlink:href="#Безымянный_градиент_106"/><linearGradient id="Безымянный_градиент_110-13" x1="112.58" y1="212.78" x2="66.54" y2="212.78" xlink:href="#Безымянный_градиент_110"/><linearGradient id="Безымянный_градиент_88-13" x1="66.54" y1="206.83" x2="112.57" y2="206.83" xlink:href="#Безымянный_градиент_88"/><linearGradient id="Безымянный_градиент_106-12" x1="77.73" y1="206.53" x2="101.39" y2="206.53" xlink:href="#Безымянный_градиент_106"/><linearGradient id="Безымянный_градиент_110-14" x1="112.58" y1="205.11" x2="66.53" y2="205.11" xlink:href="#Безымянный_градиент_110"/><linearGradient id="Безымянный_градиент_88-14" x1="66.53" y1="199.16" x2="112.57" y2="199.16" xlink:href="#Безымянный_градиент_88"/><linearGradient id="Безымянный_градиент_106-13" x1="77.72" y1="198.85" x2="101.39" y2="198.85" xlink:href="#Безымянный_градиент_106"/><linearGradient id="Безымянный_градиент_110-15" x1="112.58" y1="197.61" x2="66.53" y2="197.61" xlink:href="#Безымянный_градиент_110"/><linearGradient id="Безымянный_градиент_88-15" x1="66.53" y1="191.66" x2="112.57" y2="191.66" xlink:href="#Безымянный_градиент_88"/><linearGradient id="Безымянный_градиент_106-14" x1="77.72" y1="191.36" x2="101.39" y2="191.36" xlink:href="#Безымянный_градиент_106"/><linearGradient id="Безымянный_градиент_110-16" x1="112.58" y1="189.92" x2="66.53" y2="189.92" xlink:href="#Безымянный_градиент_110"/><linearGradient id="Безымянный_градиент_88-16" x1="66.53" y1="183.98" x2="112.57" y2="183.98" xlink:href="#Безымянный_градиент_88"/><linearGradient id="Безымянный_градиент_106-15" x1="77.72" y1="183.67" x2="101.39" y2="183.67" xlink:href="#Безымянный_градиент_106"/><linearGradient id="Безымянный_градиент_110-17" x1="112.58" y1="182.43" x2="66.53" y2="182.43" xlink:href="#Безымянный_градиент_110"/><linearGradient id="Безымянный_градиент_88-17" x1="66.53" y1="176.48" x2="112.57" y2="176.48" xlink:href="#Безымянный_градиент_88"/><linearGradient id="Безымянный_градиент_327-2" x1="77.72" y1="176.18" x2="101.39" y2="176.18" xlink:href="#Безымянный_градиент_327"/><linearGradient id="Безымянный_градиент_110-18" x1="46.05" y1="243.89" x2="0" y2="243.89" xlink:href="#Безымянный_градиент_110"/><linearGradient id="Безымянный_градиент_88-18" y1="237.94" x2="46.04" y2="237.94" xlink:href="#Безымянный_градиент_88"/><linearGradient id="Безымянный_градиент_106-16" x1="11.19" y1="237.63" x2="34.86" y2="237.63" xlink:href="#Безымянный_градиент_106"/><linearGradient id="Безымянный_градиент_110-19" x1="46.05" y1="236.4" x2="0" y2="236.4" xlink:href="#Безымянный_градиент_110"/><linearGradient id="Безымянный_градиент_88-19" y1="230.45" x2="46.04" y2="230.45" xlink:href="#Безымянный_градиент_88"/><linearGradient id="Безымянный_градиент_106-17" x1="11.19" y1="230.14" x2="34.86" y2="230.14" xlink:href="#Безымянный_градиент_106"/><linearGradient id="Безымянный_градиент_110-20" x1="46.05" y1="228.71" x2="0" y2="228.71" xlink:href="#Безымянный_градиент_110"/><linearGradient id="Безымянный_градиент_88-20" y1="222.76" x2="46.04" y2="222.76" xlink:href="#Безымянный_градиент_88"/><linearGradient id="Безымянный_градиент_106-18" x1="11.19" y1="222.45" x2="34.86" y2="222.45" xlink:href="#Безымянный_градиент_106"/><linearGradient id="Безымянный_градиент_110-21" x1="46.05" y1="221.22" x2="0" y2="221.22" xlink:href="#Безымянный_градиент_110"/><linearGradient id="Безымянный_градиент_88-21" y1="215.27" x2="46.04" y2="215.27" xlink:href="#Безымянный_градиент_88"/><linearGradient id="Безымянный_градиент_106-19" x1="11.19" y1="214.96" x2="34.86" y2="214.96" xlink:href="#Безымянный_градиент_106"/><linearGradient id="Безымянный_градиент_110-22" x1="46.04" y1="213.54" x2="0" y2="213.54" xlink:href="#Безымянный_градиент_110"/><linearGradient id="Безымянный_градиент_88-22" y1="207.59" x2="46.04" y2="207.59" xlink:href="#Безымянный_градиент_88"/><linearGradient id="Безымянный_градиент_106-20" x1="11.19" y1="207.29" x2="34.86" y2="207.29" xlink:href="#Безымянный_градиент_106"/><linearGradient id="Безымянный_градиент_110-23" x1="46.04" y1="206.05" x2="0" y2="206.05" xlink:href="#Безымянный_градиент_110"/><linearGradient id="Безымянный_градиент_88-23" y1="200.1" x2="46.04" y2="200.1" xlink:href="#Безымянный_градиент_88"/><linearGradient id="Безымянный_градиент_327-3" x1="11.19" y1="199.8" x2="34.86" y2="199.8" xlink:href="#Безымянный_градиент_327"/><linearGradient id="Безымянный_градиент_110-24" x1="145.1" y1="271.26" x2="99.06" y2="271.26" xlink:href="#Безымянный_градиент_110"/><linearGradient id="Безымянный_градиент_88-24" x1="99.06" y1="265.31" x2="145.09" y2="265.31" xlink:href="#Безымянный_градиент_88"/><linearGradient id="Безымянный_градиент_327-4" x1="110.25" y1="265.01" x2="133.91" y2="265.01" xlink:href="#Безымянный_градиент_327"/></defs><title>3</title><g id="Слой_2" data-name="Слой 2"><g id="Слой_3" data-name="Слой 3"><path d="M164 195.19l-3.26-1c-32.3-9.73-72.39-9.82-104.85-.24-68.64 20.26-69.08 70.65-.78 91.21l3.26 1c32.3 9.72 72.39 9.81 104.86.23 68.65-20.25 69.09-70.64.77-91.2z" style="opacity:.38;fill:url(#Безымянный_градиент_161)"/><path d="M166.71 234.86l23.07-13c33.27-19 42.5-77.09 20.08-134.79C188.61 32.39 146.11-3.4 109.93.26a51.8 51.8 0 0 0-10.74 2.62 31.11 31.11 0 0 0-4.51 1.94L67.77 20.09" style="fill:url(#Безымянный_градиент_319)"/><ellipse cx="117.72" cy="127.18" rx="74.3" ry="118.55" transform="rotate(-21.23 117.725 127.169)" style="fill:url(#Безымянный_градиент_155)"/><ellipse cx="113.07" cy="125.84" rx="57.53" ry="96.24" transform="rotate(-21.23 113.056 125.852)" style="stroke-miterlimit:10;stroke-width:2.61px;stroke:url(#Безымянный_градиент_333);fill:none"/><path d="M73.45 112.14l17.41 10v-8.92l-17.41-10V90.33l19.46 11.23v-8.92l-26-15v53l26.18 15.12v-8.92l-19.64-11.39zM149 125v21.82l-15.5-9v-21.75l-6.5-3.75v53l6.5 3.75V147l15.5 9v22l6.5 3.75v-53zm-53.08-21.63l10.71 6.18v44l6.55 3.78v-44l10.7 6.18v-9l-28-16.14z" style="fill:#b75ae0"/><path d="M68.74 193.3c-3.36-5.17-11.69-8-21.43-8s-18.06 2.58-21.42 7.75h-1.6v6.18c0 7.69 10.31 13.93 23 13.93s23-6.24 23-13.93v-5.93z" style="fill:url(#Безымянный_градиент_110)"/><ellipse cx="47.31" cy="193.3" rx="23.02" ry="13.93" style="fill:url(#Безымянный_градиент_88)"/><path d="M57.45 191.56a7.47 7.47 0 0 0-4.45-1.39 16.86 16.86 0 0 0-5.61 1.2c-.7.26-2.08.77-2.79 1a8.59 8.59 0 0 1-2.81.57 3.42 3.42 0 0 1-2-.65 1.55 1.55 0 0 1-.75-1.59 2.38 2.38 0 0 1 1.11-1.56 10.41 10.41 0 0 1 2.4-1.3 17.16 17.16 0 0 1 4.51-.8h.61l-.43-2.41h-.54a17.35 17.35 0 0 0-6.42 1.44l-1.69-1.23-2.42 1.48 1.63 1.19a5.18 5.18 0 0 0-2.27 3.19 3.3 3.3 0 0 0 1.59 3.3 7.36 7.36 0 0 0 4.49 1.41 16.92 16.92 0 0 0 5.53-1.18l2.78-1a8.86 8.86 0 0 1 2.86-.6 3.37 3.37 0 0 1 2 .65 1.6 1.6 0 0 1 .78 1.65 2.59 2.59 0 0 1-1.13 1.61 15.72 15.72 0 0 1-2.36 1.32 15.08 15.08 0 0 1-6.07 1.07h-.62l.36 2.44h.53a20 20 0 0 0 8.08-1.75l2 1.48 2.41-1.48-2-1.44a5.44 5.44 0 0 0 2.31-3.24 3.36 3.36 0 0 0-1.62-3.38z" style="fill:url(#Безымянный_градиент_106)"/><path d="M68.74 185.81c-3.36-5.17-11.69-8-21.43-8s-18.06 2.58-21.42 7.75h-1.6v6.18c0 7.69 10.31 13.92 23 13.92s23-6.23 23-13.92v-5.95z" style="fill:url(#Безымянный_градиент_110-2)"/><ellipse cx="47.31" cy="185.81" rx="23.02" ry="13.93" style="fill:url(#Безымянный_градиент_88-2)"/><path d="M57.45 184.07a7.34 7.34 0 0 0-4.45-1.39 16.86 16.86 0 0 0-5.61 1.2c-.7.25-2.08.77-2.79 1a8.28 8.28 0 0 1-2.81.56 3.34 3.34 0 0 1-2-.64 1.55 1.55 0 0 1-.75-1.59 2.38 2.38 0 0 1 1.11-1.56 10.41 10.41 0 0 1 2.4-1.3 17.16 17.16 0 0 1 4.51-.8h.61l-.43-2.41h-.54a17.55 17.55 0 0 0-6.42 1.45l-1.69-1.23-2.42 1.48L37.8 180a5.18 5.18 0 0 0-2.27 3.19 3.3 3.3 0 0 0 1.59 3.31 7.36 7.36 0 0 0 4.49 1.5 17.19 17.19 0 0 0 5.53-1.18l2.78-1a9.21 9.21 0 0 1 2.86-.61 3.38 3.38 0 0 1 2 .66 1.6 1.6 0 0 1 .78 1.65 2.54 2.54 0 0 1-1.13 1.6 14.74 14.74 0 0 1-2.36 1.33 15.08 15.08 0 0 1-6.07.99h-.62l.36 2.44h.53a20 20 0 0 0 8.08-1.75l2 1.48 2.41-1.48-2-1.44a5.44 5.44 0 0 0 2.31-3.24 3.36 3.36 0 0 0-1.62-3.38z" style="fill:url(#Безымянный_градиент_106-2)"/><path d="M68.74 178.12c-3.36-5.17-11.69-8-21.43-8s-18.06 2.58-21.42 7.75h-1.6v6.18c0 7.69 10.31 13.93 23 13.93s23-6.24 23-13.93v-5.95z" style="fill:url(#Безымянный_градиент_110-3)"/><ellipse cx="47.31" cy="178.12" rx="23.02" ry="13.93" style="fill:url(#Безымянный_градиент_88-3)"/><path d="M57.45 176.38A7.47 7.47 0 0 0 53 175a16.86 16.86 0 0 0-5.61 1.2c-.7.26-2.08.77-2.79 1a8.59 8.59 0 0 1-2.81.57 3.42 3.42 0 0 1-2-.65 1.55 1.55 0 0 1-.75-1.59 2.38 2.38 0 0 1 1.11-1.53 10.41 10.41 0 0 1 2.4-1.3 17.16 17.16 0 0 1 4.51-.8h.61l-.43-2.41h-.54a17.35 17.35 0 0 0-6.42 1.44l-1.69-1.23-2.42 1.48 1.63 1.19a5.18 5.18 0 0 0-2.27 3.19 3.3 3.3 0 0 0 1.59 3.31 7.36 7.36 0 0 0 4.49 1.41 17.19 17.19 0 0 0 5.53-1.18l2.78-1a8.86 8.86 0 0 1 2.86-.6 3.3 3.3 0 0 1 2 .65 1.6 1.6 0 0 1 .78 1.65 2.59 2.59 0 0 1-1.13 1.61 15.72 15.72 0 0 1-2.36 1.32 15.08 15.08 0 0 1-6.07 1.02h-.62l.36 2.44h.53a20 20 0 0 0 8.08-1.75l2 1.48 2.41-1.48-2-1.44a5.44 5.44 0 0 0 2.31-3.24 3.36 3.36 0 0 0-1.62-3.38z" style="fill:url(#Безымянный_градиент_106-3)"/><path d="M68.74 170.63c-3.36-5.17-11.69-8-21.43-8s-18.06 2.58-21.42 7.75h-1.6v6.18c0 7.69 10.31 13.92 23 13.92s23-6.23 23-13.92v-6z" style="fill:url(#Безымянный_градиент_110-4)"/><ellipse cx="47.31" cy="170.63" rx="23.02" ry="13.93" style="fill:url(#Безымянный_градиент_88-4)"/><path d="M57.45 168.89A7.34 7.34 0 0 0 53 167.5a16.61 16.61 0 0 0-5.61 1.2c-.7.25-2.08.77-2.79 1a8.28 8.28 0 0 1-2.81.56 3.34 3.34 0 0 1-2-.64A1.55 1.55 0 0 1 39 168a2.38 2.38 0 0 1 1.11-1.56 10.41 10.41 0 0 1 2.4-1.3 17.16 17.16 0 0 1 4.51-.8h.61l-.39-2.34h-.54a17.55 17.55 0 0 0-6.42 1.45l-1.69-1.23-2.42 1.48 1.63 1.19a5.18 5.18 0 0 0-2.27 3.19 3.28 3.28 0 0 0 1.59 3.3 7.31 7.31 0 0 0 4.49 1.42 17.19 17.19 0 0 0 5.53-1.18l2.78-1a9.21 9.21 0 0 1 2.86-.61 3.38 3.38 0 0 1 2 .66 1.6 1.6 0 0 1 .78 1.65 2.54 2.54 0 0 1-1.13 1.6 14.74 14.74 0 0 1-2.36 1.33 14.92 14.92 0 0 1-6.07 1h-.62l.36 2.44h.53a20 20 0 0 0 8.08-1.75l2 1.48 2.41-1.48-2-1.44a5.44 5.44 0 0 0 2.31-3.24 3.36 3.36 0 0 0-1.62-3.37z" style="fill:url(#Безымянный_градиент_106-4)"/><path d="M68.73 163c-3.36-5.17-11.68-8-21.42-8s-18.06 2.57-21.42 7.74h-1.6v6.18c0 7.69 10.3 13.93 23 13.93s23-6.24 23-13.93v-6z" style="fill:url(#Безымянный_градиент_110-5)"/><ellipse cx="47.31" cy="162.95" rx="23.02" ry="13.93" style="fill:url(#Безымянный_градиент_88-5)"/><path d="M57.44 161.22a7.36 7.36 0 0 0-4.47-1.4 16.71 16.71 0 0 0-5.62 1.18c-.69.25-2.08.77-2.78 1a8.8 8.8 0 0 1-2.81.56 3.32 3.32 0 0 1-2-.65 1.54 1.54 0 0 1-.75-1.59 2.33 2.33 0 0 1 1.11-1.55 10 10 0 0 1 2.39-1.3 16.77 16.77 0 0 1 4.51-.81h.62l-.44-2.42h-.54a17.65 17.65 0 0 0-6.42 1.44l-1.68-1.23-2.39 1.55 1.63 1.19a5.26 5.26 0 0 0-2.28 3.19 3.29 3.29 0 0 0 1.6 3.31 7.29 7.29 0 0 0 4.48 1.41 16.92 16.92 0 0 0 5.53-1.18l2.78-1a8.66 8.66 0 0 1 2.86-.61 3.29 3.29 0 0 1 2 .66 1.58 1.58 0 0 1 .79 1.64 2.61 2.61 0 0 1-1.14 1.61 14 14 0 0 1-2.36 1.32 15 15 0 0 1-6.06 1.04h-.61l.31 2.42h.53a20.09 20.09 0 0 0 8.08-1.74l2 1.48 2.42-1.48-2-1.45a5.39 5.39 0 0 0 2.32-3.24 3.36 3.36 0 0 0-1.61-3.35z" style="fill:url(#Безымянный_градиент_106-5)"/><path d="M68.73 155.46c-3.36-5.17-11.68-8-21.42-8s-18.06 2.57-21.42 7.74h-1.6v6.18c0 7.69 10.3 13.93 23 13.93s23-6.24 23-13.93v-5.95z" style="fill:url(#Безымянный_градиент_110-6)"/><ellipse cx="47.31" cy="155.46" rx="23.02" ry="13.93" style="fill:url(#Безымянный_градиент_88-6)"/><path d="M57.44 153.73a7.36 7.36 0 0 0-4.47-1.4 16.91 16.91 0 0 0-5.62 1.2l-2.78 1a8.8 8.8 0 0 1-2.81.56 3.32 3.32 0 0 1-2-.65 1.54 1.54 0 0 1-.75-1.59 2.37 2.37 0 0 1 1.11-1.56 10.3 10.3 0 0 1 2.42-1.29 16.77 16.77 0 0 1 4.51-.81h.62l-.44-2.42h-.54a17.45 17.45 0 0 0-6.42 1.44L38.59 147l-2.42 1.48 1.63 1.19a5.23 5.23 0 0 0-2.28 3.19 3.3 3.3 0 0 0 1.6 3.31 7.29 7.29 0 0 0 4.48 1.41 16.92 16.92 0 0 0 5.53-1.18c.7-.25 2.08-.77 2.78-1a8.66 8.66 0 0 1 2.86-.61 3.29 3.29 0 0 1 2 .66 1.58 1.58 0 0 1 .79 1.64 2.61 2.61 0 0 1-1.14 1.61 14.74 14.74 0 0 1-2.36 1.3 15 15 0 0 1-6.06 1.09h-.61l.36 2.44h.53a19.93 19.93 0 0 0 8.08-1.75l2 1.49 2.42-1.49-2-1.44a5.41 5.41 0 0 0 2.32-3.24 3.35 3.35 0 0 0-1.66-3.37z" style="fill:url(#Безымянный_градиент_106-6)"/><path d="M68.73 147.77c-3.36-5.17-11.68-8-21.42-8s-18.06 2.57-21.42 7.74h-1.6v6.18c0 7.69 10.3 13.93 23 13.93s23-6.24 23-13.93v-5.95z" style="fill:url(#Безымянный_градиент_110-7)"/><ellipse cx="47.31" cy="147.77" rx="23.02" ry="13.93" style="fill:url(#Безымянный_градиент_88-7)"/><path d="M57.44 146a7.36 7.36 0 0 0-4.47-1.4 16.71 16.71 0 0 0-5.62 1.21c-.69.25-2.08.77-2.78 1a8.8 8.8 0 0 1-2.81.56 3.32 3.32 0 0 1-2-.65 1.54 1.54 0 0 1-.75-1.59 2.33 2.33 0 0 1 1.11-1.55 10 10 0 0 1 2.39-1.3 16.77 16.77 0 0 1 4.51-.81h.62l-.44-2.42h-.54a17.65 17.65 0 0 0-6.42 1.44l-1.68-1.23-2.42 1.48L37.8 142a5.26 5.26 0 0 0-2.28 3.19 3.3 3.3 0 0 0 1.6 3.31 7.29 7.29 0 0 0 4.48 1.41 16.92 16.92 0 0 0 5.53-1.18l2.78-1a8.66 8.66 0 0 1 2.86-.61 3.29 3.29 0 0 1 2 .66 1.58 1.58 0 0 1 .79 1.64 2.61 2.61 0 0 1-1.14 1.58 14 14 0 0 1-2.36 1.32A15 15 0 0 1 46 153.4h-.61l.36 2.45h.53a20.09 20.09 0 0 0 8.08-1.74l2 1.48 2.42-1.49-2-1.44a5.39 5.39 0 0 0 2.32-3.24 3.36 3.36 0 0 0-1.66-3.42z" style="fill:url(#Безымянный_градиент_106-7)"/><path d="M68.73 140.28c-3.36-5.17-11.68-8-21.42-8s-18.06 2.57-21.42 7.74h-1.6v6.18c0 7.69 10.3 13.93 23 13.93s23-6.24 23-13.93v-5.95z" style="fill:url(#Безымянный_градиент_110-8)"/><ellipse cx="47.31" cy="140.28" rx="23.02" ry="13.93" style="fill:url(#Безымянный_градиент_88-8)"/><path d="M57.44 138.55a7.36 7.36 0 0 0-4.47-1.4 16.91 16.91 0 0 0-5.62 1.2l-2.78 1a8.8 8.8 0 0 1-2.81.56 3.39 3.39 0 0 1-2-.65 1.54 1.54 0 0 1-.75-1.59 2.37 2.37 0 0 1 1.11-1.56 10.3 10.3 0 0 1 2.39-1.29 16.77 16.77 0 0 1 4.51-.81h.62l-.44-2.41h-.54a17.45 17.45 0 0 0-6.42 1.44l-1.68-1.23-2.42 1.48 1.63 1.19a5.23 5.23 0 0 0-2.28 3.19 3.3 3.3 0 0 0 1.6 3.31 7.29 7.29 0 0 0 4.48 1.41 16.92 16.92 0 0 0 5.53-1.18c.7-.25 2.08-.77 2.78-1a8.66 8.66 0 0 1 2.86-.61 3.35 3.35 0 0 1 2 .65 1.6 1.6 0 0 1 .79 1.65 2.61 2.61 0 0 1-1.14 1.61 14.74 14.74 0 0 1-2.36 1.32 15 15 0 0 1-6.03 1.08h-.61l.36 2.44h.53a19.93 19.93 0 0 0 8.08-1.75l2 1.49 2.42-1.49-2-1.44a5.41 5.41 0 0 0 2.32-3.24 3.35 3.35 0 0 0-1.66-3.37z" style="fill:url(#Безымянный_градиент_106-8)"/><path d="M68.73 133c-3.36-5.17-11.69-8-21.42-8s-18.07 2.58-21.43 7.75h-1.6v6.18c0 7.69 10.31 13.92 23 13.92s23-6.23 23-13.92v-6z" style="fill:url(#Безымянный_градиент_110-9)"/><ellipse cx="47.3" cy="132.95" rx="23.02" ry="13.93" style="fill:url(#Безымянный_градиент_88-9)"/><path d="M57.44 131.21a7.34 7.34 0 0 0-4.44-1.39 16.61 16.61 0 0 0-5.61 1.2c-.7.25-2.08.77-2.79 1a8.27 8.27 0 0 1-2.8.56 3.34 3.34 0 0 1-2-.64 1.55 1.55 0 0 1-.75-1.59 2.36 2.36 0 0 1 1.12-1.56 10.17 10.17 0 0 1 2.39-1.3 17.16 17.16 0 0 1 4.51-.8h.61l-.43-2.41h-.54a17.35 17.35 0 0 0-6.42 1.45l-1.69-1.23-2.43 1.5 1.62 1.19a5.18 5.18 0 0 0-2.27 3.19 3.28 3.28 0 0 0 1.59 3.3 7.31 7.31 0 0 0 4.49 1.42 17.19 17.19 0 0 0 5.53-1.18l2.78-1a9.21 9.21 0 0 1 2.86-.61 3.38 3.38 0 0 1 2 .66 1.6 1.6 0 0 1 .78 1.65 2.54 2.54 0 0 1-1.13 1.6 14.74 14.74 0 0 1-2.36 1.33 14.92 14.92 0 0 1-6.11 1h-.62l.36 2.44h.53a20 20 0 0 0 8.08-1.75l2 1.48 2.41-1.48-2-1.44a5.44 5.44 0 0 0 2.31-3.24 3.36 3.36 0 0 0-1.58-3.35z" style="fill:url(#Безымянный_градиент_327)"/><path d="M111 229.5c-3.36-5.17-11.68-8-21.42-8s-18.06 2.57-21.42 7.74h-1.6v6.18c0 7.69 10.3 13.93 23 13.93s23-6.24 23-13.93v-5.92z" style="fill:url(#Безымянный_градиент_110-10)"/><ellipse cx="89.56" cy="229.5" rx="23.02" ry="13.93" style="fill:url(#Безымянный_градиент_88-10)"/><path d="M99.7 227.77a7.42 7.42 0 0 0-4.48-1.4 16.91 16.91 0 0 0-5.62 1.2l-2.78 1a8.8 8.8 0 0 1-2.81.56 3.39 3.39 0 0 1-2-.65 1.54 1.54 0 0 1-.75-1.59 2.37 2.37 0 0 1 1.11-1.56 10.3 10.3 0 0 1 2.39-1.29 16.77 16.77 0 0 1 4.51-.81h.62l-.44-2.41h-.54a17.45 17.45 0 0 0-6.42 1.44l-1.68-1.23-2.42 1.48 1.63 1.19a5.23 5.23 0 0 0-2.28 3.19 3.32 3.32 0 0 0 1.6 3.31 7.29 7.29 0 0 0 4.48 1.41 16.92 16.92 0 0 0 5.53-1.18c.7-.25 2.08-.77 2.78-1a8.66 8.66 0 0 1 2.86-.61 3.35 3.35 0 0 1 2 .65 1.6 1.6 0 0 1 .79 1.65 2.57 2.57 0 0 1-1.14 1.61 14.74 14.74 0 0 1-2.36 1.32 15 15 0 0 1-6.11 1.06h-.61l.36 2.44h.53a19.93 19.93 0 0 0 8.08-1.75l2 1.49 2.42-1.49-2-1.44a5.41 5.41 0 0 0 2.32-3.24 3.36 3.36 0 0 0-1.57-3.35z" style="fill:url(#Безымянный_градиент_106-9)"/><path d="M111 222c-3.36-5.17-11.68-8-21.42-8s-18.06 2.58-21.42 7.75h-1.6V228c0 7.69 10.3 13.93 23 13.93s23-6.24 23-13.93v-6z" style="fill:url(#Безымянный_градиент_110-11)"/><ellipse cx="89.56" cy="222.01" rx="23.02" ry="13.93" style="fill:url(#Безымянный_градиент_88-11)"/><path d="M99.7 220.28a7.42 7.42 0 0 0-4.48-1.4 16.91 16.91 0 0 0-5.62 1.2l-2.78 1a8.8 8.8 0 0 1-2.81.56 3.39 3.39 0 0 1-2-.65 1.54 1.54 0 0 1-.75-1.59 2.37 2.37 0 0 1 1.11-1.56 10.3 10.3 0 0 1 2.39-1.29 16.77 16.77 0 0 1 4.51-.81h.62l-.44-2.41h-.54a17.45 17.45 0 0 0-6.42 1.44l-1.68-1.23-2.42 1.48 1.63 1.19a5.2 5.2 0 0 0-2.28 3.19 3.32 3.32 0 0 0 1.6 3.31 7.35 7.35 0 0 0 4.48 1.41 16.92 16.92 0 0 0 5.56-1.12c.7-.25 2.08-.77 2.78-1a8.66 8.66 0 0 1 2.86-.61 3.35 3.35 0 0 1 2 .65 1.6 1.6 0 0 1 .79 1.65 2.57 2.57 0 0 1-1.14 1.61 14.74 14.74 0 0 1-2.36 1.32 15 15 0 0 1-6.11 1.06h-.61l.36 2.44h.53a19.93 19.93 0 0 0 8.08-1.75l2 1.48 2.42-1.48-2-1.44a5.41 5.41 0 0 0 2.32-3.24 3.36 3.36 0 0 0-1.6-3.41z" style="fill:url(#Безымянный_градиент_106-10)"/><path d="M111 214.32c-3.36-5.17-11.68-8-21.42-8s-18.06 2.57-21.42 7.74h-1.6v6.18c0 7.69 10.3 13.93 23 13.93s23-6.24 23-13.93v-6z" style="fill:url(#Безымянный_градиент_110-12)"/><ellipse cx="89.56" cy="214.32" rx="23.02" ry="13.93" style="fill:url(#Безымянный_градиент_88-12)"/><path d="M99.7 212.59a7.42 7.42 0 0 0-4.48-1.4 16.91 16.91 0 0 0-5.62 1.2l-2.78 1A8.8 8.8 0 0 1 84 214a3.39 3.39 0 0 1-2-.65 1.54 1.54 0 0 1-.75-1.59 2.37 2.37 0 0 1 1.11-1.56 10.3 10.3 0 0 1 2.39-1.29 16.77 16.77 0 0 1 4.51-.81h.62l-.44-2.41h-.54a17.45 17.45 0 0 0-6.42 1.44l-1.68-1.23-2.42 1.48 1.63 1.19a5.23 5.23 0 0 0-2.28 3.19 3.32 3.32 0 0 0 1.6 3.31 7.29 7.29 0 0 0 4.48 1.41 16.92 16.92 0 0 0 5.53-1.18c.7-.25 2.08-.77 2.78-1a8.66 8.66 0 0 1 2.86-.61 3.35 3.35 0 0 1 2 .65 1.6 1.6 0 0 1 .79 1.65 2.57 2.57 0 0 1-1.14 1.61 14.74 14.74 0 0 1-2.36 1.32A15 15 0 0 1 88.2 220h-.61l.36 2.44h.53a19.93 19.93 0 0 0 8.08-1.75l2 1.48 2.42-1.48-2-1.44a5.41 5.41 0 0 0 2.32-3.24 3.36 3.36 0 0 0-1.6-3.42z" style="fill:url(#Безымянный_градиент_106-11)"/><path d="M111 206.83c-3.36-5.17-11.68-8-21.42-8s-18.06 2.58-21.42 7.75h-1.6v6.18c0 7.69 10.3 13.93 23 13.93s23-6.24 23-13.93v-5.95z" style="fill:url(#Безымянный_градиент_110-13)"/><ellipse cx="89.56" cy="206.83" rx="23.02" ry="13.93" style="fill:url(#Безымянный_градиент_88-13)"/><path d="M99.7 205.1a7.42 7.42 0 0 0-4.48-1.4 16.91 16.91 0 0 0-5.62 1.2l-2.78 1a8.8 8.8 0 0 1-2.81.56 3.39 3.39 0 0 1-2-.65 1.54 1.54 0 0 1-.75-1.59 2.37 2.37 0 0 1 1.11-1.56 10.76 10.76 0 0 1 2.39-1.3 17.16 17.16 0 0 1 4.51-.8h.62l-.44-2.41h-.54a17.45 17.45 0 0 0-6.42 1.44l-1.68-1.23-2.42 1.48 1.63 1.19a5.2 5.2 0 0 0-2.28 3.19 3.32 3.32 0 0 0 1.6 3.31 7.35 7.35 0 0 0 4.51 1.47 16.92 16.92 0 0 0 5.53-1.18c.7-.25 2.08-.77 2.78-1a8.66 8.66 0 0 1 2.86-.61 3.35 3.35 0 0 1 2 .65 1.6 1.6 0 0 1 .79 1.65 2.57 2.57 0 0 1-1.14 1.61 14.74 14.74 0 0 1-2.36 1.32 15 15 0 0 1-6.11 1.06h-.61l.41 2.4h.53a19.93 19.93 0 0 0 8.08-1.75l2 1.48 2.42-1.48-2-1.44a5.41 5.41 0 0 0 2.32-3.24 3.36 3.36 0 0 0-1.65-3.37z" style="fill:url(#Безымянный_градиент_106-12)"/><path d="M111 199.16c-3.36-5.18-11.69-8-21.42-8s-18.07 2.57-21.43 7.74h-1.6v6.19c0 7.69 10.31 13.92 23 13.92s23-6.23 23-13.92v-6z" style="fill:url(#Безымянный_градиент_110-14)"/><ellipse cx="89.55" cy="199.16" rx="23.02" ry="13.93" style="fill:url(#Безымянный_градиент_88-14)"/><path d="M99.69 197.42a7.42 7.42 0 0 0-4.48-1.4 16.91 16.91 0 0 0-5.61 1.21c-.7.25-2.08.77-2.79 1a8.8 8.8 0 0 1-2.8.56 3.29 3.29 0 0 1-2-.65 1.55 1.55 0 0 1-.75-1.59A2.37 2.37 0 0 1 82.4 195a10.17 10.17 0 0 1 2.39-1.3 16.77 16.77 0 0 1 4.51-.81h.61l-.43-2.42h-.54a17.35 17.35 0 0 0-6.42 1.53l-1.69-1.24-2.41 1.49 1.58 1.13a5.24 5.24 0 0 0-2.27 3.19 3.28 3.28 0 0 0 1.59 3.31 7.3 7.3 0 0 0 4.49 1.41 17.14 17.14 0 0 0 5.53-1.17l2.78-1a8.93 8.93 0 0 1 2.86-.61 3.38 3.38 0 0 1 2 .66 1.59 1.59 0 0 1 .78 1.64 2.56 2.56 0 0 1-1.13 1.61 14.87 14.87 0 0 1-2.36 1.32 15.08 15.08 0 0 1-6.11 1.06h-.62l.36 2.44h.53a20 20 0 0 0 8.08-1.74l2 1.48 2.42-1.48L99 204a5.44 5.44 0 0 0 2.31-3.24 3.36 3.36 0 0 0-1.62-3.34z" style="fill:url(#Безымянный_градиент_106-13)"/><path d="M111 191.66c-3.36-5.17-11.69-8-21.42-8s-18.07 2.57-21.43 7.74h-1.6v6.18c0 7.7 10.31 13.93 23 13.93s23-6.23 23-13.93v-6z" style="fill:url(#Безымянный_градиент_110-15)"/><ellipse cx="89.55" cy="191.66" rx="23.02" ry="13.93" style="fill:url(#Безымянный_градиент_88-15)"/><path d="M99.69 189.93a7.42 7.42 0 0 0-4.48-1.4 16.66 16.66 0 0 0-5.61 1.21c-.7.25-2.08.77-2.79 1a8.8 8.8 0 0 1-2.8.56 3.29 3.29 0 0 1-2-.65 1.55 1.55 0 0 1-.75-1.59 2.37 2.37 0 0 1 1.12-1.55 10.17 10.17 0 0 1 2.39-1.3 16.77 16.77 0 0 1 4.51-.81h.61l-.41-2.4h-.54a17.35 17.35 0 0 0-6.42 1.45l-1.69-1.24-2.41 1.48 1.58 1.2a5.24 5.24 0 0 0-2.27 3.19 3.28 3.28 0 0 0 1.59 3.31 7.3 7.3 0 0 0 4.49 1.41 17.14 17.14 0 0 0 5.53-1.17l2.78-1A8.66 8.66 0 0 1 95 191a3.31 3.31 0 0 1 2 .66 1.59 1.59 0 0 1 .78 1.64 2.59 2.59 0 0 1-1.13 1.61 14.87 14.87 0 0 1-2.36 1.32 15.08 15.08 0 0 1-6.11 1.06h-.62l.36 2.44h.53a20 20 0 0 0 8.1-1.73l2 1.48L101 198l-2-1.44a5.44 5.44 0 0 0 2.31-3.24 3.36 3.36 0 0 0-1.62-3.39z" style="fill:url(#Безымянный_градиент_106-14)"/><path d="M111 184c-3.36-5.18-11.69-8-21.42-8s-18.07 2.57-21.43 7.74h-1.6v6.18c0 7.7 10.31 13.93 23 13.93s23-6.23 23-13.93V184z" style="fill:url(#Безымянный_градиент_110-16)"/><ellipse cx="89.55" cy="183.98" rx="23.02" ry="13.93" style="fill:url(#Безымянный_градиент_88-16)"/><path d="M99.69 182.24a7.42 7.42 0 0 0-4.48-1.4 16.66 16.66 0 0 0-5.61 1.21c-.7.25-2.08.77-2.79 1a8.8 8.8 0 0 1-2.8.56 3.29 3.29 0 0 1-2-.65 1.55 1.55 0 0 1-.75-1.59 2.37 2.37 0 0 1 1.12-1.55 10.17 10.17 0 0 1 2.39-1.3 16.77 16.77 0 0 1 4.51-.81h.61l-.43-2.42h-.54a17.35 17.35 0 0 0-6.42 1.45l-1.69-1.24-2.39 1.5 1.58 1.2a5.24 5.24 0 0 0-2.27 3.19 3.28 3.28 0 0 0 1.59 3.31 7.3 7.3 0 0 0 4.49 1.41 17.14 17.14 0 0 0 5.53-1.17l2.78-1a8.66 8.66 0 0 1 2.86-.61 3.38 3.38 0 0 1 2 .66 1.59 1.59 0 0 1 .78 1.64 2.56 2.56 0 0 1-1.13 1.61 14.87 14.87 0 0 1-2.36 1.32 15.08 15.08 0 0 1-6.11 1.06h-.62l.36 2.44h.53a20 20 0 0 0 8.08-1.74l2 1.48 2.42-1.48-2-1.44a5.44 5.44 0 0 0 2.31-3.24 3.36 3.36 0 0 0-1.55-3.4z" style="fill:url(#Безымянный_градиент_106-15)"/><path d="M111 176.48c-3.36-5.17-11.69-8-21.42-8s-18.07 2.57-21.43 7.74h-1.6v6.18c0 7.69 10.31 13.93 23 13.93s23-6.24 23-13.93v-6z" style="fill:url(#Безымянный_градиент_110-17)"/><ellipse cx="89.55" cy="176.48" rx="23.02" ry="13.93" style="fill:url(#Безымянный_градиент_88-17)"/><path d="M99.69 174.75a7.42 7.42 0 0 0-4.48-1.4 16.66 16.66 0 0 0-5.61 1.21c-.7.25-2.08.77-2.79 1a8.8 8.8 0 0 1-2.8.56 3.35 3.35 0 0 1-2-.65 1.55 1.55 0 0 1-.75-1.59 2.37 2.37 0 0 1 1.12-1.55 9.81 9.81 0 0 1 2.39-1.3 16.77 16.77 0 0 1 4.51-.81h.61l-.43-2.42h-.54a17.55 17.55 0 0 0-6.42 1.44L80.83 168l-2.41 1.48 1.58 1.23a5.24 5.24 0 0 0-2.27 3.19 3.28 3.28 0 0 0 1.59 3.31 7.3 7.3 0 0 0 4.49 1.41 17.14 17.14 0 0 0 5.53-1.17l2.78-1a8.66 8.66 0 0 1 2.86-.61 3.31 3.31 0 0 1 2 .66 1.59 1.59 0 0 1 .78 1.64 2.59 2.59 0 0 1-1.13 1.61 14.87 14.87 0 0 1-2.36 1.32 15.08 15.08 0 0 1-6.11 1.06h-.62l.36 2.44h.53a20 20 0 0 0 8.08-1.74l2 1.48 2.49-1.51-2-1.44a5.46 5.46 0 0 0 2.31-3.24 3.36 3.36 0 0 0-1.62-3.37z" style="fill:url(#Безымянный_градиент_327-2)"/><path d="M44.45 237.94c-3.36-5.17-11.68-8-21.42-8S5 232.54 1.6 237.71H0v6.18c0 7.69 10.31 13.93 23 13.93s23-6.24 23-13.93v-5.95z" style="fill:url(#Безымянный_градиент_110-18)"/><ellipse cx="23.02" cy="237.94" rx="23.02" ry="13.93" style="fill:url(#Безымянный_градиент_88-18)"/><path d="M33.16 236.2a7.45 7.45 0 0 0-4.48-1.39 16.91 16.91 0 0 0-5.61 1.2c-.7.26-2.08.77-2.79 1a8.54 8.54 0 0 1-2.8.57 3.37 3.37 0 0 1-2-.65 1.55 1.55 0 0 1-.76-1.59 2.4 2.4 0 0 1 1.12-1.56 10.37 10.37 0 0 1 2.39-1.3 17.16 17.16 0 0 1 4.51-.8h.61l-.35-2.42h-.54a17.4 17.4 0 0 0-6.46 1.47l-1.7-1.23-2.41 1.5 1.62 1.19a5.18 5.18 0 0 0-2.27 3.19 3.29 3.29 0 0 0 1.6 3.31 7.35 7.35 0 0 0 4.48 1.41 17.19 17.19 0 0 0 5.53-1.18l2.78-1a8.86 8.86 0 0 1 2.86-.6 3.28 3.28 0 0 1 2 .65 1.61 1.61 0 0 1 .79 1.65 2.61 2.61 0 0 1-1.14 1.61 15.22 15.22 0 0 1-2.36 1.32 15.08 15.08 0 0 1-6.11 1.06h-.61l.35 2.44h.53a20.1 20.1 0 0 0 8.06-1.8l2 1.48 2.42-1.48-2-1.44a5.39 5.39 0 0 0 2.31-3.24 3.35 3.35 0 0 0-1.57-3.37z" style="fill:url(#Безымянный_градиент_106-16)"/><path d="M44.45 230.45c-3.36-5.17-11.68-8-21.42-8S5 225.05 1.6 230.22H0v6.18c0 7.69 10.31 13.92 23 13.92s23-6.23 23-13.92v-6z" style="fill:url(#Безымянный_градиент_110-19)"/><ellipse cx="23.02" cy="230.45" rx="23.02" ry="13.93" style="fill:url(#Безымянный_градиент_88-19)"/><path d="M33.16 228.71a7.32 7.32 0 0 0-4.48-1.39 16.66 16.66 0 0 0-5.61 1.2c-.7.25-2.08.77-2.79 1a8.23 8.23 0 0 1-2.8.56 3.29 3.29 0 0 1-2-.64 1.55 1.55 0 0 1-.76-1.59 2.4 2.4 0 0 1 1.12-1.56 10.37 10.37 0 0 1 2.39-1.3 17.16 17.16 0 0 1 4.51-.8h.61l-.35-2.42h-.54a17.6 17.6 0 0 0-6.46 1.47L14.3 222l-2.41 1.48 1.62 1.19a5.18 5.18 0 0 0-2.27 3.19 3.27 3.27 0 0 0 1.6 3.3 7.3 7.3 0 0 0 4.48 1.42 17.19 17.19 0 0 0 5.53-1.18l2.78-1a9.21 9.21 0 0 1 2.86-.61 3.35 3.35 0 0 1 2 .66 1.61 1.61 0 0 1 .79 1.65 2.56 2.56 0 0 1-1.14 1.6 14.3 14.3 0 0 1-2.36 1.3 14.92 14.92 0 0 1-6.11 1h-.61l.35 2.44h.53a20.1 20.1 0 0 0 8.06-1.68l2 1.48 2.42-1.48-2-1.44a5.39 5.39 0 0 0 2.31-3.24 3.35 3.35 0 0 0-1.57-3.37z" style="fill:url(#Безымянный_градиент_106-17)"/><path d="M44.45 222.76c-3.36-5.17-11.68-8-21.42-8S5 217.36 1.6 222.53H0v6.18c0 7.69 10.31 13.92 23 13.92s23-6.23 23-13.92v-6z" style="fill:url(#Безымянный_градиент_110-20)"/><ellipse cx="23.02" cy="222.76" rx="23.02" ry="13.93" style="fill:url(#Безымянный_градиент_88-20)"/><path d="M33.16 221a7.32 7.32 0 0 0-4.48-1.39 16.91 16.91 0 0 0-5.61 1.2c-.7.25-2.08.77-2.79 1a8.23 8.23 0 0 1-2.8.56 3.29 3.29 0 0 1-2-.64 1.55 1.55 0 0 1-.76-1.59 2.4 2.4 0 0 1 1.12-1.56 10.37 10.37 0 0 1 2.39-1.3 17.16 17.16 0 0 1 4.51-.8h.61l-.35-2.4h-.54a17.6 17.6 0 0 0-6.46 1.47l-1.69-1.23-2.41 1.48 1.61 1.2a5.18 5.18 0 0 0-2.27 3.19 3.29 3.29 0 0 0 1.6 3.31 7.35 7.35 0 0 0 4.48 1.41 17.19 17.19 0 0 0 5.53-1.18l2.78-1a9.21 9.21 0 0 1 2.86-.61 3.35 3.35 0 0 1 2 .66 1.61 1.61 0 0 1 .79 1.65 2.56 2.56 0 0 1-1.14 1.6 14.3 14.3 0 0 1-2.36 1.33 15.08 15.08 0 0 1-6.11 1.06h-.61l.35 2.44h.53a20.1 20.1 0 0 0 8.06-1.79l2 1.48 2.42-1.48-2-1.44a5.39 5.39 0 0 0 2.31-3.24 3.35 3.35 0 0 0-1.57-3.39z" style="fill:url(#Безымянный_градиент_106-18)"/><path d="M44.45 215.27c-3.36-5.17-11.68-8-21.42-8S5 209.87 1.6 215H0v6.18c0 7.69 10.31 13.92 23 13.92s23-6.23 23-13.92v-5.95z" style="fill:url(#Безымянный_градиент_110-21)"/><ellipse cx="23.02" cy="215.27" rx="23.02" ry="13.93" style="fill:url(#Безымянный_градиент_88-21)"/><path d="M33.16 213.53a7.32 7.32 0 0 0-4.48-1.39 16.66 16.66 0 0 0-5.61 1.2c-.7.25-2.08.77-2.79 1a8.23 8.23 0 0 1-2.8.56 3.29 3.29 0 0 1-2-.64 1.55 1.55 0 0 1-.76-1.59 2.4 2.4 0 0 1 1.12-1.56 10.37 10.37 0 0 1 2.39-1.3 17.16 17.16 0 0 1 4.51-.8h.61l-.35-2.42h-.54a17.39 17.39 0 0 0-6.46 1.47l-1.69-1.23-2.41 1.48 1.62 1.19a5.18 5.18 0 0 0-2.27 3.19 3.27 3.27 0 0 0 1.6 3.3 7.3 7.3 0 0 0 4.48 1.42 17.19 17.19 0 0 0 5.53-1.18l2.78-1a9.21 9.21 0 0 1 2.86-.61 3.35 3.35 0 0 1 2 .66 1.6 1.6 0 0 1 .79 1.64 2.56 2.56 0 0 1-1.14 1.61 14.3 14.3 0 0 1-2.36 1.33 14.92 14.92 0 0 1-6.11 1h-.61l.35 2.44h.53a20.1 20.1 0 0 0 8.05-1.72l2 1.48 2.42-1.48-2-1.44a5.39 5.39 0 0 0 2.31-3.24 3.35 3.35 0 0 0-1.57-3.37z" style="fill:url(#Безымянный_градиент_106-19)"/><path d="M44.45 207.59c-3.36-5.17-11.69-8-21.43-8S5 202.19 1.6 207.36H0v6.18c0 7.69 10.3 13.93 23 13.93s23-6.24 23-13.93v-5.95z" style="fill:url(#Безымянный_градиент_110-22)"/><ellipse cx="23.02" cy="207.59" rx="23.02" ry="13.93" style="fill:url(#Безымянный_градиент_88-22)"/><path d="M33.16 205.86a7.42 7.42 0 0 0-4.48-1.4 16.91 16.91 0 0 0-5.62 1.2l-2.78 1a8.8 8.8 0 0 1-2.81.56 3.32 3.32 0 0 1-2-.65 1.55 1.55 0 0 1-.75-1.59 2.36 2.36 0 0 1 1.11-1.55 9.86 9.86 0 0 1 2.4-1.3 16.7 16.7 0 0 1 4.51-.81h.61l-.35-2.41h-.54a17.66 17.66 0 0 0-6.46 1.47l-1.68-1.23-2.42 1.48 1.63 1.19a5.3 5.3 0 0 0-2.3 3.18 3.32 3.32 0 0 0 1.6 3.31 7.29 7.29 0 0 0 4.48 1.41 16.92 16.92 0 0 0 5.54-1.18l2.77-1a8.71 8.71 0 0 1 2.86-.61 3.32 3.32 0 0 1 2 .66 1.59 1.59 0 0 1 .78 1.64 2.59 2.59 0 0 1-1.13 1.61 15.44 15.44 0 0 1-2.37 1.32 15 15 0 0 1-6.1 1.06h-.62l.36 2.44h.53a20.05 20.05 0 0 0 8.07-1.75l2 1.48 2.41-1.49-2-1.44a5.41 5.41 0 0 0 2.32-3.24 3.34 3.34 0 0 0-1.57-3.36z" style="fill:url(#Безымянный_градиент_106-20)"/><path d="M44.45 200.1c-3.36-5.17-11.69-8-21.43-8S5 194.7 1.6 199.87H0v6.18C0 213.74 10.31 220 23 220s23-6.24 23-13.93v-6z" style="fill:url(#Безымянный_градиент_110-23)"/><ellipse cx="23.02" cy="200.1" rx="23.02" ry="13.93" style="fill:url(#Безымянный_градиент_88-23)"/><path d="M33.16 198.37a7.42 7.42 0 0 0-4.48-1.4 16.91 16.91 0 0 0-5.62 1.2l-2.78 1a8.8 8.8 0 0 1-2.81.56 3.39 3.39 0 0 1-2-.65 1.55 1.55 0 0 1-.75-1.59 2.4 2.4 0 0 1 1.14-1.49 10.15 10.15 0 0 1 2.4-1.29 16.7 16.7 0 0 1 4.51-.81h.61l-.38-2.48h-.54a17.45 17.45 0 0 0-6.46 1.47l-1.68-1.23-2.42 1.48 1.63 1.19a5.27 5.27 0 0 0-2.28 3.19 3.32 3.32 0 0 0 1.6 3.31 7.29 7.29 0 0 0 4.48 1.41 16.92 16.92 0 0 0 5.54-1.18c.69-.25 2.07-.77 2.77-1a8.71 8.71 0 0 1 2.86-.61 3.38 3.38 0 0 1 2 .65 1.6 1.6 0 0 1 .78 1.65 2.59 2.59 0 0 1-1.13 1.61 15.44 15.44 0 0 1-2.37 1.32 15 15 0 0 1-6.1 1.06h-.62l.36 2.44h.53a19.89 19.89 0 0 0 8.05-1.77l2 1.48 2.41-1.48-2-1.44a5.41 5.41 0 0 0 2.32-3.24 3.34 3.34 0 0 0-1.57-3.36z" style="fill:url(#Безымянный_градиент_327-3)"/><path d="M143.5 265.31c-3.36-5.17-11.68-8-21.42-8s-18.06 2.57-21.42 7.74h-1.6v6.18c0 7.69 10.3 13.93 23 13.93s23-6.24 23-13.93v-5.95z" style="fill:url(#Безымянный_градиент_110-24)"/><ellipse cx="122.07" cy="265.31" rx="23.02" ry="13.93" style="fill:url(#Безымянный_градиент_88-24)"/><path d="M132.21 263.58a7.39 7.39 0 0 0-4.47-1.4 16.91 16.91 0 0 0-5.62 1.2l-2.78 1a8.85 8.85 0 0 1-2.81.56 3.32 3.32 0 0 1-2-.65 1.54 1.54 0 0 1-.75-1.59 2.33 2.33 0 0 1 1.11-1.55 10 10 0 0 1 2.39-1.3 16.77 16.77 0 0 1 4.51-.81h.62l-.44-2.42h-.54a17.65 17.65 0 0 0-6.43 1.48l-1.68-1.23-2.42 1.48 1.63 1.19a5.26 5.26 0 0 0-2.28 3.19 3.3 3.3 0 0 0 1.6 3.31 7.29 7.29 0 0 0 4.48 1.41 16.92 16.92 0 0 0 5.53-1.18l2.78-1a8.66 8.66 0 0 1 2.86-.61 3.29 3.29 0 0 1 2 .66 1.58 1.58 0 0 1 .79 1.64 2.61 2.61 0 0 1-1.14 1.61 14.74 14.74 0 0 1-2.36 1.32 15.08 15.08 0 0 1-6.11 1.06h-.61l.36 2.44h.57a19.93 19.93 0 0 0 8.08-1.75l2 1.49 2.42-1.49-2-1.44a5.41 5.41 0 0 0 2.32-3.24 3.35 3.35 0 0 0-1.61-3.38z" style="fill:url(#Безымянный_градиент_327-4)"/><path class="cls-78" d="M57.88 132.64c0 3.57-4.73 6.46-10.57 6.46s-10.56-2.89-10.56-6.46 4.73-6.45 10.56-6.45 10.57 2.89 10.57 6.45z"/><ellipse class="cls-78" cx="25.82" cy="199.01" rx="10.56" ry="6.45"/><ellipse class="cls-78" cx="94.28" cy="176.48" rx="10.56" ry="6.45"/><ellipse class="cls-78" cx="120.81" cy="264.23" rx="10.56" ry="6.45"/></g></g></svg>