<svg xmlns="http://www.w3.org/2000/svg" width="121.874" height="13.219" viewBox="0 0 121.874 13.219">
  <metadata><?xpacket begin="﻿" id="W5M0MpCehiHzreSzNTczkc9d"?>
<x:xmpmeta xmlns:x="adobe:ns:meta/" x:xmptk="Adobe XMP Core 5.6-c140 79.160451, 2017/05/06-01:08:21        ">
   <rdf:RDF xmlns:rdf="http://www.w3.org/1999/02/22-rdf-syntax-ns#">
      <rdf:Description rdf:about=""/>
   </rdf:RDF>
</x:xmpmeta>
                                                                                                    
                                                                                                    
                                                                                                    
                                                                                                    
                                                                                                    
                                                                                                    
                                                                                                    
                                                                                                    
                                                                                                    
                                                                                                    
                                                                                                    
                                                                                                    
                                                                                                    
                                                                                                    
                                                                                                    
                                                                                                    
                                                                                                    
                                                                                                    
                                                                                                    
                                                                                                    
                           
<?xpacket end="w"?></metadata>
<defs>
    <style>
      .cls-1 {
        fill: #fff;
        fill-rule: evenodd;
      }
    </style>
  </defs>
  <path id="TOKENBOOM" class="cls-1" d="M132.76,55.486h2.791v-10.1h3.835v-2.5H128.925v2.5h3.835v10.1Zm21.028-6.3c0-4.105-2.773-6.608-6.806-6.608s-6.806,2.5-6.806,6.608,2.772,6.608,6.806,6.608S153.788,53.29,153.788,49.185Zm-2.755,0a4.052,4.052,0,1,1-8.1,0,3.956,3.956,0,0,1,4.052-4.087A3.914,3.914,0,0,1,151.033,49.185Zm15.246-6.3h-3.4l-4.2,5.2v-5.2h-2.809v12.6h2.809V50.1l4.664,5.384h3.385V55.324L161.165,49l5.114-6.05V42.883Zm11.3,10.011H170.74V50.355h6.212V47.888H170.74V45.457h6.59V42.883h-9.345v12.6h9.6V52.894Zm4.624-10.011h-2.413v12.6h2.845V51.561L182.53,47.42l6.266,8.066h2.413v-12.6h-2.827v4.231l0.18,3.961Zm14.562,7.238h3.421c1.242,0,1.89.594,1.89,1.476s-0.594,1.441-1.854,1.441h-3.457V50.121Zm0-4.807h3.457a1.349,1.349,0,0,1,1.6,1.278c0,0.738-.54,1.188-1.638,1.188h-3.421V45.313Zm-2.755-2.431v12.6h6.32c2.521,0,4.213-.918,4.591-2.953a3.186,3.186,0,0,0-2-3.655A2.7,2.7,0,0,0,204.6,46.3c0-2.341-1.98-3.421-4.375-3.421h-6.212Zm25.978,6.3c0-4.105-2.773-6.608-6.806-6.608s-6.806,2.5-6.806,6.608,2.772,6.608,6.806,6.608S219.991,53.29,219.991,49.185Zm-2.755,0a4.052,4.052,0,1,1-8.1,0,3.956,3.956,0,0,1,4.052-4.087A3.914,3.914,0,0,1,217.236,49.185Zm17.73,0c0-4.105-2.772-6.608-6.806-6.608s-6.806,2.5-6.806,6.608,2.773,6.608,6.806,6.608S234.966,53.29,234.966,49.185Zm-2.754,0a4.052,4.052,0,1,1-8.1,0A3.955,3.955,0,0,1,228.16,45.1,3.914,3.914,0,0,1,232.212,49.185Zm15.8,6.32h2.808V42.9h-3.187l-3.691,4.844L240.273,42.9H237.05V55.5h2.809V46.7l3.763,4.933h0.5l3.89-4.9V55.5Z" transform="translate(-128.938 -42.563)"/>
</svg>
