<svg xmlns="http://www.w3.org/2000/svg" width="48.25" height="12.688" viewBox="0 0 48.25 12.688">
  <metadata><?xpacket begin="﻿" id="W5M0MpCehiHzreSzNTczkc9d"?>
<x:xmpmeta xmlns:x="adobe:ns:meta/" x:xmptk="Adobe XMP Core 5.6-c140 79.160451, 2017/05/06-01:08:21        ">
   <rdf:RDF xmlns:rdf="http://www.w3.org/1999/02/22-rdf-syntax-ns#">
      <rdf:Description rdf:about=""/>
   </rdf:RDF>
</x:xmpmeta>
                                                                                                    
                                                                                                    
                                                                                                    
                                                                                                    
                                                                                                    
                                                                                                    
                                                                                                    
                                                                                                    
                                                                                                    
                                                                                                    
                                                                                                    
                                                                                                    
                                                                                                    
                                                                                                    
                                                                                                    
                                                                                                    
                                                                                                    
                                                                                                    
                                                                                                    
                                                                                                    
                           
<?xpacket end="w"?></metadata>
<defs>
    <style>
      .cls-1 {
        fill: #fcf7f1;
        fill-rule: evenodd;
      }
    </style>
  </defs>
  <path id="AirDrop" class="cls-1" d="M104.052,56.758L102.388,44.5h-2.4L98.34,56.758h1.632l0.32-2.72H102.1l0.32,2.72h1.632Zm-2.144-4.273h-1.44l0.72-6.113Zm6.063,4.273V44.5h-1.632V56.758h1.632Zm8.176,0-1.5-5.393a1.753,1.753,0,0,0,.92-0.832,3.507,3.507,0,0,0,.264-1.5V47.061a2.621,2.621,0,0,0-.632-1.936,2.214,2.214,0,0,0-1.624-.624h-2.72V56.758h1.632V51.718h0.624l1.408,5.041h1.632ZM114.2,48.949a1.561,1.561,0,0,1-.216.936,0.805,0.805,0,0,1-.68.28h-0.816V46.053H113.3a0.805,0.805,0,0,1,.68.28,1.561,1.561,0,0,1,.216.936v1.68Zm7.023,7.809a2.157,2.157,0,0,0,1.608-.624,2.661,2.661,0,0,0,.616-1.936V47.061a2.661,2.661,0,0,0-.616-1.936,2.158,2.158,0,0,0-1.608-.624h-2.752V56.758h2.752Zm0.592-2.768a1.56,1.56,0,0,1-.216.936,0.8,0.8,0,0,1-.68.28H120.1V46.053h0.816a0.8,0.8,0,0,1,.68.28,1.561,1.561,0,0,1,.216.936V53.99Zm9.728,2.768-1.5-5.393a1.753,1.753,0,0,0,.92-0.832,3.507,3.507,0,0,0,.264-1.5V47.061a2.621,2.621,0,0,0-.632-1.936,2.215,2.215,0,0,0-1.624-.624h-2.721V56.758h1.632V51.718H128.5l1.409,5.041h1.632Zm-1.952-7.809a1.561,1.561,0,0,1-.216.936,0.805,0.805,0,0,1-.68.28h-0.817V46.053h0.817a0.805,0.805,0,0,1,.68.28,1.561,1.561,0,0,1,.216.936v1.68Zm4.191,5.457a2.451,2.451,0,0,0,.712,1.92,2.634,2.634,0,0,0,1.832.64,2.6,2.6,0,0,0,1.808-.632,2.463,2.463,0,0,0,.7-1.928V46.853q0-2.56-2.432-2.56a2.774,2.774,0,0,0-1.912.632,2.446,2.446,0,0,0-.712,1.928v7.553ZM137.2,54.2a1.382,1.382,0,0,1-.256.92,0.84,0.84,0,0,1-1.28,0,1.382,1.382,0,0,1-.256-0.92V47.061a1.382,1.382,0,0,1,.256-0.92,0.84,0.84,0,0,1,1.28,0,1.382,1.382,0,0,1,.256.92V54.2Zm6.063,2.56V51.718h1.168a2.079,2.079,0,0,0,1.584-.624,2.73,2.73,0,0,0,.592-1.936v-2.1a2.621,2.621,0,0,0-.632-1.928,2.218,2.218,0,0,0-1.64-.632h-2.7V56.758h1.632Zm1.712-7.809a1.561,1.561,0,0,1-.216.936,0.8,0.8,0,0,1-.68.28h-0.816V46.053h0.816a0.8,0.8,0,0,1,.68.28,1.561,1.561,0,0,1,.216.936v1.68Z" transform="translate(-98.344 -44.281)"/>
</svg>
