<svg xmlns="http://www.w3.org/2000/svg" width="121.874" height="13.219" viewBox="0 0 121.874 13.219">
    <path d="M3.822 12.923h2.791v-10.1h3.835v-2.5H-.013v2.5h3.835v10.1zm21.028-6.3c0-4.105-2.773-6.608-6.806-6.608s-6.806 2.5-6.806 6.608 2.772 6.608 6.806 6.608 6.806-2.504 6.806-6.609zm-2.755 0a4.052 4.052 0 1 1-8.1 0 3.956 3.956 0 0 1 4.052-4.087 3.914 3.914 0 0 1 4.048 4.086zm15.246-6.3h-3.4l-4.2 5.2v-5.2h-2.809v12.6h2.809V7.537l4.664 5.384h3.385v-.16l-5.563-6.324 5.114-6.05V.32zm11.3 10.011h-6.839V7.792h6.212V5.325h-6.212V2.894h6.59V.32h-9.345v12.6h9.6v-2.589zM53.265.323h-2.413v12.6h2.845V8.998l-.105-4.141 6.266 8.066h2.413V.323h-2.827v4.231l.18 3.961zm14.562 7.238h3.421c1.242 0 1.89.594 1.89 1.476s-.594 1.441-1.854 1.441h-3.457v-2.92zm0-4.807h3.457a1.349 1.349 0 0 1 1.6 1.278c0 .738-.54 1.188-1.638 1.188h-3.421V2.75zM65.072.323v12.6h6.32c2.521 0 4.213-.918 4.591-2.953a3.186 3.186 0 0 0-2-3.655 2.7 2.7 0 0 0 1.679-2.578c0-2.341-1.98-3.421-4.375-3.421h-6.212zm25.978 6.3c0-4.105-2.773-6.608-6.806-6.608s-6.806 2.5-6.806 6.608 2.772 6.608 6.806 6.608 6.809-2.504 6.809-6.609zm-2.755 0a4.052 4.052 0 1 1-8.1 0 3.956 3.956 0 0 1 4.052-4.087 3.914 3.914 0 0 1 4.051 4.086zm17.73 0c0-4.105-2.772-6.608-6.806-6.608s-6.806 2.5-6.806 6.608 2.773 6.608 6.806 6.608 6.809-2.504 6.809-6.609zm-2.754 0a4.052 4.052 0 1 1-8.1 0 3.955 3.955 0 0 1 4.051-4.086 3.914 3.914 0 0 1 4.052 4.085zm15.8 6.32h2.808V.337h-3.187l-3.691 4.844-3.666-4.844h-3.223v12.6h2.809v-8.8l3.763 4.933h.5l3.89-4.9v8.767z" fill="#fff" fill-rule="evenodd"/>
</svg>
