<svg xmlns="http://www.w3.org/2000/svg" width="48.25" height="12.688" viewBox="0 0 48.25 12.688"><path id="AirDrop" d="M104.052 56.758L102.388 44.5h-2.4L98.34 56.758h1.632l.32-2.72h1.808l.32 2.72h1.632zm-2.144-4.273h-1.44l.72-6.113zm6.063 4.273V44.5h-1.632v12.258h1.632zm8.176 0l-1.5-5.393a1.753 1.753 0 0 0 .92-.832 3.507 3.507 0 0 0 .264-1.5v-1.972a2.621 2.621 0 0 0-.632-1.936 2.214 2.214 0 0 0-1.624-.624h-2.72v12.257h1.632v-5.04h.624l1.408 5.041h1.632zm-1.947-7.809a1.561 1.561 0 0 1-.216.936.805.805 0 0 1-.68.28h-.816v-4.112h.812a.805.805 0 0 1 .68.28 1.561 1.561 0 0 1 .216.936v1.68zm7.023 7.809a2.157 2.157 0 0 0 1.608-.624 2.661 2.661 0 0 0 .616-1.936v-7.137a2.661 2.661 0 0 0-.616-1.936 2.158 2.158 0 0 0-1.608-.624h-2.752v12.257h2.752zm.592-2.768a1.56 1.56 0 0 1-.216.936.8.8 0 0 1-.68.28h-.819v-9.153h.816a.8.8 0 0 1 .68.28 1.561 1.561 0 0 1 .216.936v6.721zm9.728 2.768l-1.5-5.393a1.753 1.753 0 0 0 .92-.832 3.507 3.507 0 0 0 .264-1.5v-1.972a2.621 2.621 0 0 0-.632-1.936 2.215 2.215 0 0 0-1.624-.624h-2.721v12.257h1.632v-5.04h.618l1.409 5.041h1.632zm-1.952-7.809a1.561 1.561 0 0 1-.216.936.805.805 0 0 1-.68.28h-.817v-4.112h.817a.805.805 0 0 1 .68.28 1.561 1.561 0 0 1 .216.936v1.68zm4.191 5.457a2.451 2.451 0 0 0 .712 1.92 2.634 2.634 0 0 0 1.832.64 2.6 2.6 0 0 0 1.808-.632 2.463 2.463 0 0 0 .7-1.928v-7.553q0-2.56-2.432-2.56a2.774 2.774 0 0 0-1.912.632 2.446 2.446 0 0 0-.712 1.928v7.553zm3.418-.206a1.382 1.382 0 0 1-.256.92.84.84 0 0 1-1.28 0 1.382 1.382 0 0 1-.256-.92v-7.139a1.382 1.382 0 0 1 .256-.92.84.84 0 0 1 1.28 0 1.382 1.382 0 0 1 .256.92V54.2zm6.063 2.56v-5.042h1.168a2.079 2.079 0 0 0 1.584-.624 2.73 2.73 0 0 0 .592-1.936v-2.1a2.621 2.621 0 0 0-.632-1.928 2.218 2.218 0 0 0-1.64-.632h-2.7v12.26h1.632zm1.712-7.809a1.561 1.561 0 0 1-.216.936.8.8 0 0 1-.68.28h-.816v-4.114h.816a.8.8 0 0 1 .68.28 1.561 1.561 0 0 1 .216.936v1.68z" transform="translate(-98.344 -44.281)" style="fill:#fcf7f1;fill-rule:evenodd"/></svg>