<svg version="1" xmlns="http://www.w3.org/2000/svg" width="533.333" height="533.333" viewBox="0 0 400 400"><path d="M186.5 1.6C104.2 7.9 35.2 62.1 10.6 139.9-2.3 180.6-1.7 225.6 12.1 265c20 56.9 63.6 101.2 119.9 121.6 36.8 13.4 78.6 15.5 117 5.8 70.1-17.6 125.8-73.3 143.4-143.4 8-31.7 8-66.2.1-98C374.9 80.9 319.4 25.3 249.2 7.6c-5.3-1.4-14-3.2-19.2-4-9.7-1.5-34.5-2.7-43.5-2zm37.2 84c34.3 5.1 61 19.8 70.4 39 3.1 6.3 3.4 7.6 3.4 15.9 0 7.9-.3 9.8-2.7 14.3-3.8 7.4-8.4 12.7-15.3 17.9-13.3 10-31.6 17-53.2 20.2-10.2 1.6-36.1 1.3-47.3-.4-32.7-4.9-60-20.6-68.9-39.5-2.2-4.6-2.6-6.9-2.6-14.5 0-8.4.2-9.4 3.5-15.4 10.1-18.7 34.8-32.2 68.5-37.6 11.2-1.8 31.8-1.8 44.2.1zm73.4 81.9c-2.3 10.4-11.9 21.5-25.7 29.9-13.3 8.1-36.9 14.6-52.6 14.6-10-.1-8.7-1.3 3.2-2.9 38.8-5.4 68.6-23.6 74.2-45.3 1.6-6.6 2.5-3.3.9 3.7zm.5 12.2c-2.8 23.8-37 45.2-76.7 47.9-7.2.5-9.9.4-9.9-.5 0-.6.3-1.1.8-1.1 3.6 0 22.6-3.5 30.2-5.6 29.5-8 51.9-25.6 54.7-43.1.9-5.5 1.6-3.7.9 2.4zm-.1 16.8c-3.4 22.9-38.4 44.3-75.7 46.2-7.1.4-10.8.2-10.8-.4 0-.6 3-1.4 6.8-1.8 25.7-2.6 50.5-12.3 65.9-25.8 5-4.4 10.9-13.7 12.4-19.8 1.5-5.9 2.4-4.9 1.4 1.6zm.1 14.2c-2 16.7-20 33.1-45.6 41.7-14.1 4.7-41 8.5-41 5.8 0-1.2.5-1.3 16.2-3.7 27-4.2 53.3-17.8 63.8-33 1.6-2.3 3.7-7 4.7-10.3 1-3.4 2-6.2 2.2-6.2.2 0 .1 2.6-.3 5.7zm0 15.5c-2.8 21.2-29.9 40.6-64.6 46.3-10 1.6-22 2-22 .7 0-.4 6.4-1.7 14.3-3 37.2-6 64.4-22.8 70.5-43.4.9-3.2 1.9-5.8 2.1-5.8.2 0 .1 2.4-.3 5.2zm-.6 18.7c-5.2 21-31.9 38.2-67.5 43.6-11.6 1.7-18.5 1.9-18.5.5 0-.6.3-1 .6-1 .4 0 6-.9 12.5-2 40.8-7 67.9-24.5 72.6-47 .6-3 .8-3.1 1.1-1.1.2 1.3-.1 4.4-.8 7zm.6 12.2c-2.9 21.4-29.3 40.2-65 46.4-9.6 1.6-22 2-21.2.6.3-.4 2.9-1.1 5.8-1.5 9.8-1.3 25.3-4.7 32.8-7.3 23.7-8.1 41.4-22.6 45.8-37.5.9-3.2 1.9-5.8 2.1-5.8.2 0 .1 2.3-.3 5.1z"/><path d="M175 89c-15.1 2.3-23.8 5-36.1 11.2-8 4-11.7 6.6-17.4 12.2-8.9 8.8-11.8 14.6-12.3 24.1-.5 9.1.9 13.9 6.1 21.7 10.4 15.4 32.7 26.9 62.2 32 9.9 1.7 14.8 1.9 28.5 1.5 9.1-.2 18.9-1 21.8-1.7l5.2-1.2v-9l-7.7.8c-14.3 1.6-37.8.9-48-1.4-29.7-6.8-49.2-22.5-49.3-39.9 0-14.9 11.9-28.1 32.7-36.4 4.3-1.7 8.3-3.5 8.9-4C171 97.8 193 94 198.1 94c2.8 0 3.9-.4 3.9-1.5 0-.8.7-1.5 1.5-1.5s1.5-.9 1.5-2c0-1.9-.6-2-9.2-1.9-5.1 0-14.5.9-20.8 1.9z"/><path d="M195.8 98.7c.7.3 1.6.2 1.9-.1.4-.3-.2-.6-1.3-.5-1.1 0-1.4.3-.6.6zm-17.8 1.9c-3.6.8-7.9 1.6-9.6 1.8-1.7.2-7.2 2.5-12.1 5-9.8 5.1-18.1 12.4-21.5 18.9-2.5 5-3.4 13.8-1.9 19.3 5.8 21.5 42.7 37.1 79.2 33.4 5.8-.5 12.9-1.7 15.8-2.6 5.1-1.5 5.1-1.5 5.1-5.6 0-3.7-.2-4-2.2-3.4-7.9 2.3-21.2 3.8-30.8 3.3-36-1.7-59.7-21.3-49.9-41.4 2.3-4.8 9.4-11.5 15.3-14.5 2.2-1.1 4.6-2.6 5.3-3.4 1.4-1.4 10.4-4.4 13.1-4.4.9 0 3.3-.8 5.4-1.7 2.8-1.3 3.8-2.3 3.8-4 0-2.1-.5-2.3-4.2-2.2-2.4 0-7.2.7-10.8 1.5z"/><path d="M164.2 122.1c-2.3 1.7-5.4 5.1-6.9 7.6-7.1 12.2.8 24.6 20.1 31.8 12.6 4.7 34.6 4.9 48.1.4 6.9-2.4 7-2.5 7.3-6.2.3-3.7-.5-4.6-2.4-2.7-.5.5-3.6 1.9-6.9 3-17.4 6-40 2-49.7-8.8-4.2-4.6-4.1-4.5-3.8-18.5.1-5.3-.2-9.7-.7-9.7-.5 0-2.8 1.4-5.1 3.1z"/></svg>